<svg width="67" height="67" viewBox="0 0 67 67" fill="none" xmlns="http://www.w3.org/2000/svg">
<path d="M24.776 8.09583L48.2958 31.5458C48.575 31.825 48.7723 32.1274 48.8877 32.4531C49.0049 32.7788 49.0635 33.1278 49.0635 33.5C49.0635 33.8722 49.0049 34.2212 48.8877 34.5469C48.7723 34.8726 48.575 35.175 48.2958 35.4542L24.776 58.974C24.1247 59.6253 23.3104 59.951 22.3333 59.951C21.3562 59.951 20.5187 59.6021 19.8208 58.9042C19.1229 58.2063 18.774 57.392 18.774 56.4615C18.774 55.5309 19.1229 54.7167 19.8208 54.0188L40.3396 33.5L19.8208 12.9813C19.1694 12.3299 18.8437 11.5277 18.8437 10.5748C18.8437 9.62009 19.1927 8.79375 19.8906 8.09583C20.5885 7.39792 21.4028 7.04896 22.3333 7.04896C23.2639 7.04896 24.0781 7.39792 24.776 8.09583Z" fill="#140A82"/>
</svg>
