<svg width="67" height="67" viewBox="0 0 67 67" fill="none" xmlns="http://www.w3.org/2000/svg">
<path d="M42.224 58.9042L18.7042 35.4542C18.425 35.175 18.2277 34.8726 18.1123 34.5469C17.9951 34.2212 17.9365 33.8722 17.9365 33.5C17.9365 33.1278 17.9951 32.7788 18.1123 32.4531C18.2277 32.1274 18.425 31.825 18.7042 31.5458L42.224 8.02604C42.8753 7.37465 43.6896 7.04896 44.6667 7.04896C45.6438 7.04896 46.4813 7.39792 47.1792 8.09583C47.8771 8.79375 48.226 9.60799 48.226 10.5385C48.226 11.4691 47.8771 12.2833 47.1792 12.9812L26.6604 33.5L47.1792 54.0187C47.8306 54.6701 48.1563 55.4723 48.1563 56.4252C48.1563 57.3799 47.8073 58.2062 47.1094 58.9042C46.4115 59.6021 45.5972 59.951 44.6667 59.951C43.7361 59.951 42.9219 59.6021 42.224 58.9042Z" fill="#140A82"/>
</svg>
