<svg width="94" height="94" viewBox="0 0 94 94" fill="none" xmlns="http://www.w3.org/2000/svg">
<path d="M47 0C53.1721 0 59.2838 1.21569 64.9861 3.57766C70.6884 5.93963 75.8697 9.40163 80.234 13.766C84.5984 18.1303 88.0604 23.3116 90.4223 29.0139C92.7843 34.7162 94 40.8279 94 47C94 59.4652 89.0482 71.4198 80.234 80.234C71.4198 89.0482 59.4652 94 47 94C40.8279 94 34.7162 92.7843 29.0139 90.4223C23.3116 88.0604 18.1303 84.5984 13.766 80.234C4.95177 71.4198 0 59.4652 0 47C0 34.5348 4.95177 22.5802 13.766 13.766C22.5802 4.95177 34.5348 0 47 0M70.5 65.8V61.1L65.8 56.4V44.133C65.8 39.01 64.531 34.498 62.087 30.691C59.69 26.884 56.212 24.487 51.7 23.5V21.15C51.7 19.9035 51.2048 18.708 50.3234 17.8266C49.442 16.9452 48.2465 16.45 47 16.45C45.7535 16.45 44.558 16.9452 43.6766 17.8266C42.7952 18.708 42.3 19.9035 42.3 21.15V23.5C37.788 24.487 34.31 26.884 31.913 30.691C29.469 34.498 28.2 39.01 28.2 44.133V56.4L23.5 61.1V65.8H70.5ZM54.05 70.5H39.95C39.95 72.3698 40.6928 74.163 42.0149 75.4851C43.337 76.8072 45.1302 77.55 47 77.55C48.8698 77.55 50.663 76.8072 51.9851 75.4851C53.3072 74.163 54.05 72.3698 54.05 70.5Z" fill="#140A82"/>
</svg>
