<svg width="436" height="468" viewBox="0 0 436 468" fill="none" xmlns="http://www.w3.org/2000/svg">
<g clip-path="url(#clip0_24_72)">
<path d="M332.394 186.116C331.474 186.864 330.571 187.624 329.671 188.408C320.984 218.146 316.572 249.398 316.62 280.864C316.616 284.503 316.683 288.133 316.82 291.754C317.779 318.908 322.155 345.74 329.804 371.366C330.207 372.715 330.618 374.058 331.037 375.395C331.336 376.354 331.641 377.323 331.968 378.273C332.295 378.752 332.618 379.222 332.94 379.692C332.962 379.712 332.982 379.747 333.004 379.768C333.134 379.957 333.264 380.147 333.381 380.333C333.938 381.139 334.502 381.938 335.059 382.743L334.618 382.803L333.514 382.946L333.519 382.954C333.89 382.925 334.269 382.89 334.643 382.846C334.78 382.84 334.928 382.835 335.067 382.814C335.191 382.804 335.322 382.788 335.446 382.779C351.394 381.407 367.7 379.585 381.934 371.073C396.832 362.158 409.061 343.958 407.648 324.277C407.456 321.7 407.027 319.155 406.367 316.689C406.091 315.658 405.774 314.649 405.436 313.642C403.382 307.48 399.979 302.077 395.575 297.988C391.172 293.898 385.928 291.271 380.382 290.376C374.836 289.48 369.189 290.349 364.022 292.893C358.854 295.437 354.351 299.564 350.978 304.85C354.558 284.34 372.872 272.987 389.484 265.79C406.109 258.596 424.832 250.998 432.746 232.267C437.167 221.842 436.827 209.991 433.268 199.223C433.16 198.901 433.047 198.571 432.926 198.246C428.478 185.59 420.159 175.387 409.631 169.675C389.923 159.418 366.656 164.663 347.295 175.808C342.115 178.793 337.134 182.239 332.394 186.116V186.116Z" fill="#F2F2F2"/>
<path d="M392.681 314.413C377.595 316.877 363.579 325.02 352.705 337.64C343.448 348.502 336.832 362.113 333.553 377.045C333.361 377.9 333.19 378.751 333.031 379.606C332.615 378.764 332.209 377.903 331.808 377.049C331.55 376.503 331.287 375.947 331.037 375.395C331.336 376.355 331.641 377.323 331.968 378.273C332.295 378.752 332.617 379.222 332.939 379.692C332.962 379.712 332.982 379.747 333.004 379.768C333.134 379.957 333.264 380.147 333.381 380.333C333.938 381.139 334.502 381.938 335.059 382.743L334.618 382.803L333.514 382.946L333.519 382.954C333.89 382.925 334.269 382.89 334.643 382.846C334.779 382.84 334.928 382.835 335.067 382.814C335.103 382.556 335.151 382.3 335.199 382.044C338.393 362.815 347.359 345.604 360.441 333.591C373.523 321.577 389.836 315.574 406.367 316.688C406.091 315.658 405.774 314.649 405.436 313.642C401.174 313.46 396.906 313.717 392.681 314.413Z" fill="white"/>
<path d="M339.464 242.129C333.593 247.847 328.459 254.549 324.224 262.023C322.021 266.004 320.137 270.22 318.594 274.615C317.861 276.655 317.203 278.751 316.62 280.864C316.616 284.503 316.683 288.133 316.82 291.754C317.278 288.986 317.861 286.25 318.566 283.556C318.93 282.078 319.341 280.627 319.782 279.19C324.73 263.099 334.315 250.088 345.82 239.969C358.15 229.14 372.196 220.753 386.51 214.309C401.179 207.677 416.479 203.199 432.068 200.974C432.42 200.921 432.741 200.709 432.965 200.383C433.188 200.057 433.297 199.641 433.268 199.223C433.266 198.857 433.143 198.506 432.926 198.246C432.811 198.125 432.674 198.037 432.525 197.989C432.376 197.942 432.22 197.937 432.07 197.974C430.146 198.249 428.227 198.533 426.311 198.878C410.368 201.693 394.781 206.844 379.912 214.213C365.557 221.303 351.424 230.256 339.464 242.129Z" fill="white"/>
<path d="M415.236 150.521C418.197 150.521 420.596 147.681 420.596 144.177C420.596 140.674 418.197 137.834 415.236 137.834C412.276 137.834 409.877 140.674 409.877 144.177C409.877 147.681 412.276 150.521 415.236 150.521Z" fill="#F2F2F2"/>
<path d="M310.358 466.628H178.215C170.292 466.617 162.697 462.887 157.095 456.257C151.493 449.627 148.342 440.637 148.333 431.26V35.3673C148.342 25.9906 151.493 17.001 157.095 10.3706C162.697 3.74023 170.292 0.0106233 178.215 0H310.358C318.28 0.0106214 325.875 3.74023 331.477 10.3706C337.079 17.0009 340.23 25.9906 340.239 35.3673V431.26C340.23 440.637 337.079 449.627 331.477 456.257C325.875 462.887 318.28 466.617 310.358 466.628V466.628Z" fill="#3F3D56"/>
<path d="M308.879 10.9795H294.17C292.857 10.981 291.599 11.5989 290.67 12.6976C289.742 13.7963 289.22 15.286 289.219 16.8398C289.216 20.0165 288.149 23.0622 286.251 25.3085C284.353 27.5548 281.78 28.8181 279.096 28.8211H207.157C204.473 28.8181 201.9 27.5548 200.002 25.3085C198.104 23.0622 197.037 20.0165 197.034 16.8398C197.033 15.286 196.511 13.7963 195.583 12.6976C194.655 11.5989 193.396 10.981 192.083 10.9795H179.114C173.105 10.9885 167.345 13.8176 163.097 18.8461C158.848 23.8747 156.458 30.6922 156.45 37.8037V430.882C156.458 437.994 158.848 444.812 163.097 449.84C167.345 454.869 173.105 457.698 179.114 457.707H308.879C314.887 457.698 320.647 454.869 324.896 449.84C329.144 444.812 331.535 437.994 331.542 430.882V37.8037C331.535 30.6922 329.144 23.8747 324.896 18.8461C320.647 13.8176 314.887 10.9885 308.879 10.9795V10.9795Z" fill="white"/>
<path d="M261.245 18.871H220.66C220.276 18.871 219.907 18.6902 219.635 18.3685C219.364 18.0468 219.211 17.6104 219.211 17.1554C219.211 16.7004 219.364 16.2641 219.635 15.9424C219.907 15.6206 220.276 15.4399 220.66 15.4399H261.245C261.629 15.4399 261.998 15.6206 262.269 15.9424C262.541 16.2641 262.694 16.7004 262.694 17.1554C262.694 17.6104 262.541 18.0468 262.269 18.3685C261.998 18.6902 261.629 18.871 261.245 18.871Z" fill="white"/>
<path d="M267.622 18.5279C268.262 18.5279 268.782 17.9134 268.782 17.1554C268.782 16.3974 268.262 15.783 267.622 15.783C266.982 15.783 266.463 16.3974 266.463 17.1554C266.463 17.9134 266.982 18.5279 267.622 18.5279Z" fill="white"/>
<path d="M341.398 156.114C340.707 156.113 340.044 155.788 339.554 155.209C339.065 154.63 338.79 153.845 338.789 153.026V92.6393C338.789 91.8203 339.064 91.0349 339.554 90.4558C340.043 89.8767 340.707 89.5513 341.398 89.5513C342.09 89.5513 342.754 89.8767 343.243 90.4558C343.733 91.0349 344.007 91.8203 344.007 92.6393V153.026C344.007 153.845 343.732 154.63 343.242 155.209C342.753 155.788 342.09 156.113 341.398 156.114V156.114Z" fill="#3F3D56"/>
<path d="M148.333 111.51C147.642 111.509 146.978 111.184 146.489 110.605C146 110.026 145.725 109.241 145.724 108.422V94.698C145.724 93.879 145.999 93.0935 146.489 92.5144C146.978 91.9353 147.641 91.61 148.333 91.61C149.025 91.61 149.689 91.9353 150.178 92.5144C150.667 93.0935 150.942 93.879 150.942 94.698V108.422C150.942 109.241 150.666 110.026 150.177 110.605C149.688 111.184 149.025 111.509 148.333 111.51Z" fill="#3F3D56"/>
<path d="M148.333 136.9C147.642 136.899 146.978 136.574 146.489 135.995C146 135.416 145.725 134.631 145.724 133.812V120.088C145.724 119.269 145.999 118.484 146.489 117.904C146.978 117.325 147.641 117 148.333 117C149.025 117 149.689 117.325 150.178 117.904C150.667 118.484 150.942 119.269 150.942 120.088V133.812C150.942 134.631 150.666 135.416 150.177 135.995C149.688 136.574 149.025 136.899 148.333 136.9V136.9Z" fill="#3F3D56"/>
<path d="M387.29 468H0.57976C0.425994 468 0.278525 467.928 0.169796 467.799C0.0610676 467.67 -1.52588e-05 467.496 -1.52588e-05 467.314C-1.52588e-05 467.132 0.0610676 466.957 0.169796 466.829C0.278525 466.7 0.425994 466.628 0.57976 466.628H387.29C387.443 466.628 387.591 466.7 387.7 466.829C387.808 466.957 387.869 467.132 387.869 467.314C387.869 467.496 387.808 467.67 387.7 467.799C387.591 467.928 387.443 468 387.29 468Z" fill="#3F3D56"/>
<path d="M36.3223 459.696H43.4304L46.8116 427.246H36.3212L36.3223 459.696Z" fill="#FFB6B6"/>
<path d="M34.5092 456.949L48.5072 456.949H48.5078C50.8737 456.949 53.1426 458.061 54.8155 460.041C56.4884 462.021 57.4284 464.707 57.4285 467.507V467.85L34.5096 467.851L34.5092 456.949Z" fill="#2F2E41"/>
<path d="M101.837 459.696H108.945L112.326 427.246H101.836L101.837 459.696Z" fill="#FFB6B6"/>
<path d="M100.024 456.949L114.022 456.949H114.022C116.388 456.949 118.657 458.061 120.33 460.041C122.003 462.021 122.943 464.707 122.943 467.507V467.85L100.024 467.851L100.024 456.949Z" fill="#2F2E41"/>
<path d="M93.2545 199.003L97.8927 234L53.8298 234.686L59.6275 201.062L93.2545 199.003Z" fill="#FFB6B6"/>
<path d="M99.6323 225.079L110.648 269.683L112.387 452.973H100.502L72.093 305.71L46.0031 449.129H34.4076L42.5244 287.868C42.5244 287.868 38.466 248.067 52.3806 236.402V226.165L99.6323 225.079Z" fill="#2F2E41"/>
<path d="M36.4169 259.933C37.6438 259.537 38.7824 258.828 39.7526 257.855C40.7228 256.882 41.501 255.669 42.0323 254.302C42.5637 252.935 42.8352 251.446 42.8279 249.941C42.8206 248.436 42.5345 246.951 41.9899 245.591L60.7349 173.258L46.9472 170.023L29.803 240.925C27.9333 242.159 26.5111 244.162 25.8059 246.555C25.1007 248.947 25.1614 251.563 25.9767 253.906C26.7919 256.249 28.305 258.157 30.2292 259.268C32.1534 260.378 34.3551 260.615 36.4169 259.933V259.933Z" fill="#FFB6B6"/>
<path d="M88.7161 126.826C96.4823 117.634 96.4823 102.731 88.7161 93.5387C80.95 84.3467 68.3586 84.3467 60.5925 93.5387C52.8264 102.731 52.8264 117.634 60.5925 126.826C68.3586 136.017 80.95 136.017 88.7161 126.826Z" fill="#FFB6B6"/>
<path d="M60.4348 217.873C59.654 217.69 58.9457 217.208 58.4184 216.502C57.8911 215.796 57.5741 214.905 57.5159 213.966C57.0787 206.878 54.9157 194.561 51.0875 177.355C50.2248 173.466 50.0665 169.406 50.623 165.439C51.1796 161.473 52.4383 157.691 54.3167 154.341C56.1951 150.991 58.6507 148.149 61.5223 146.001C64.394 143.853 67.617 142.448 70.9796 141.878V141.878C74.1673 141.332 77.4152 141.548 80.531 142.514C83.6469 143.48 86.5675 145.175 89.12 147.5C91.6725 149.825 93.8051 152.733 95.3916 156.051C96.9781 159.368 97.9863 163.029 98.3566 166.816C100.251 186.559 96.6778 206.394 95.0538 214.004C94.8569 214.92 94.4117 215.735 93.7864 216.323C93.161 216.911 92.39 217.241 91.5913 217.261L61.2178 217.955C60.9551 217.961 60.6926 217.934 60.4348 217.873V217.873Z" fill="#FF5E1A"/>
<path d="M145.998 154.794C145.815 155.278 145.666 155.779 145.55 156.291L107.53 171.582L100.184 163.986L89.0491 175.61L100.95 190.554C101.912 191.761 103.178 192.566 104.559 192.849C105.941 193.132 107.362 192.877 108.61 192.122L149.293 167.527C150.764 168.595 152.476 169.107 154.199 168.996C155.922 168.885 157.576 168.156 158.941 166.905C160.306 165.655 161.316 163.942 161.838 161.995C162.36 160.048 162.369 157.958 161.864 156.005C161.358 154.052 160.362 152.327 159.008 151.06C157.654 149.793 156.007 149.044 154.284 148.913C152.562 148.781 150.847 149.274 149.366 150.324C147.886 151.375 146.711 152.934 145.998 154.794H145.998Z" fill="#FFB6B6"/>
<path d="M106.205 172.418L92.3454 186.746C91.951 187.153 91.4871 187.456 90.9851 187.632C90.4832 187.808 89.955 187.855 89.4366 187.767C88.9183 187.68 88.4218 187.462 87.9811 187.127C87.5404 186.793 87.1658 186.35 86.8829 185.828L76.9695 167.557C75.2188 165.157 74.3436 162.034 74.5357 158.871C74.7278 155.709 75.9716 152.765 77.9943 150.687C80.0171 148.608 82.6537 147.563 85.3261 147.782C87.9986 148.001 90.4887 149.465 92.2506 151.853L106.172 165.888C106.57 166.29 106.891 166.789 107.112 167.351C107.332 167.913 107.448 168.524 107.452 169.144C107.455 169.764 107.345 170.377 107.13 170.942C106.915 171.507 106.599 172.01 106.205 172.418Z" fill="#FF5E1A"/>
<path d="M58.5451 191.778L41.4175 183.814C40.9302 183.588 40.4899 183.239 40.1265 182.793C39.7632 182.347 39.4853 181.813 39.3119 181.229C39.1385 180.644 39.0737 180.022 39.1217 179.405C39.1697 178.788 39.3296 178.19 39.5904 177.653L48.7286 158.824C49.7217 155.878 51.6613 153.519 54.1219 152.264C56.5826 151.009 59.3634 150.96 61.8544 152.128C64.3454 153.296 66.3433 155.586 67.4097 158.496C68.4761 161.405 68.5241 164.696 67.543 167.648L63.4271 188.736C63.3091 189.34 63.0826 189.907 62.7629 190.397C62.4432 190.888 62.0379 191.292 61.5746 191.58C61.1113 191.869 60.6009 192.036 60.0781 192.07C59.5553 192.104 59.0324 192.005 58.5451 191.778V191.778Z" fill="#E4E4E4"/>
<path d="M83.6604 105.618C87.9909 111.005 93.8707 116.886 99.7117 113.674C103.547 111.565 105.486 106.412 104.896 101.338C103.834 92.2115 97.7138 86.8289 91.745 82.3946C83.9855 76.63 75.3579 71.4514 66.282 72.0468C57.2062 72.6422 47.9128 80.9868 47.7323 92.0548C47.5872 100.956 53.0816 109.717 50.7275 118.145C48.3583 126.628 39.568 129.271 32.213 129.114C24.858 128.956 16.8298 127.538 10.7151 132.518C2.91459 138.872 2.23483 153.431 6.99914 163.278C11.7634 173.125 20.3908 179.15 28.9293 183.891C40.2423 190.173 52.7874 195.068 64.9827 192.12C77.1781 189.172 88.4343 176.027 87.4982 160.926C87.1027 154.548 84.685 148.654 82.3542 142.922C80.0235 137.19 77.6901 131.221 77.4855 124.829C77.3149 119.502 79.0147 113.776 82.4044 110.63C83.0167 110.084 83.4711 109.316 83.7025 108.435C83.9338 107.555 83.9302 106.608 83.6921 105.73L83.6604 105.618Z" fill="#2F2E41"/>
<path d="M327.081 205.785C320.809 210.237 309.634 215.816 298.215 210.083L290.834 206.377L305.626 186.751C293.822 171.347 287.291 151.289 287.309 130.492C287.327 109.696 293.892 89.6542 305.723 74.2784C317.553 58.9026 333.8 49.2967 351.293 47.3355C368.785 45.3744 386.267 51.1989 400.326 63.672C414.385 76.1451 424.013 94.3717 427.33 114.794C430.646 135.217 427.414 156.369 418.264 174.123C409.114 191.876 394.702 204.957 377.842 210.811C360.982 216.666 342.884 214.874 327.081 205.785V205.785Z" fill="white"/>
<path d="M327.119 206.843C321.092 211.031 309.612 216.819 297.907 210.942L289.513 206.727L304.568 186.753C295.201 174.283 289.161 158.81 287.209 142.285C285.257 125.759 287.48 108.919 293.598 93.886C299.716 78.8528 309.456 66.2986 321.591 57.8043C333.725 49.31 347.712 45.2556 361.79 46.1515C375.868 47.0475 389.407 52.8539 400.702 62.8393C411.997 72.8248 420.543 86.5428 425.264 102.266C429.985 117.989 430.67 135.014 427.232 151.196C423.794 167.379 416.387 181.996 405.944 193.205V193.205C395.456 204.532 382.344 211.883 368.296 214.314C354.248 216.744 339.907 214.143 327.119 206.843V206.843ZM409.699 75.0319C403.538 66.9832 396.097 60.4501 387.801 55.8061C379.506 51.162 370.519 48.4979 361.353 47.966C352.188 47.434 343.024 49.0447 334.384 52.7059C325.745 56.3671 317.799 62.0072 311.002 69.3038C304.205 76.6005 298.688 85.4108 294.769 95.2314C290.849 105.052 288.602 115.69 288.157 126.539C287.712 137.387 289.078 148.233 292.175 158.457C295.273 168.681 300.042 178.082 306.21 186.124L306.686 186.746L292.154 206.027L298.523 209.224C309.827 214.9 321.013 209.004 326.675 204.985L327.041 204.725L327.425 204.946C342.02 213.339 358.629 215.457 374.4 210.936C390.17 206.415 404.119 195.537 413.852 180.169C423.584 164.801 428.493 145.902 427.735 126.717C426.978 107.532 420.601 89.2582 409.699 75.0319V75.0319Z" fill="#24A640"/>
<path opacity="0.1" d="M417.594 130.057C417.593 110.827 411.509 92.2948 400.54 78.1093C389.571 63.9237 374.512 55.1132 358.329 53.4128C360.223 53.2165 362.138 53.1103 364.075 53.1103C381.311 53.1208 397.838 61.2323 410.023 75.6615C422.208 90.0906 429.052 109.656 429.052 130.057C429.052 150.458 422.208 170.023 410.023 184.452C397.838 198.881 381.311 206.993 364.075 207.004C362.141 207.004 360.229 206.896 358.338 206.7C374.519 204.997 389.576 196.186 400.543 182.001C411.51 167.815 417.593 149.285 417.594 130.057V130.057Z" fill="black"/>
<path d="M367.128 114.713H320.674V119.819H367.128V114.713Z" fill="#24A640"/>
<path d="M401.64 132.376H320.674V137.482H401.64V132.376Z" fill="#24A640"/>
<path d="M401.561 150.039H320.674V155.145H401.561V150.039Z" fill="#24A640"/>
<path d="M180.712 335.914C174.111 328.828 169.433 319.583 167.27 309.35C165.108 299.117 165.557 288.355 168.562 278.424C171.568 268.494 176.993 259.841 184.153 253.56C191.314 247.279 199.886 243.652 208.788 243.138C217.69 242.624 226.52 245.246 234.163 250.672C241.806 256.098 247.917 264.084 251.725 273.621C255.533 283.159 256.866 293.818 255.555 304.252C254.244 314.685 250.349 324.425 244.362 332.238L253.797 344.757L249.089 347.121C241.805 350.777 234.678 347.219 230.677 344.379C222.586 349.032 213.504 350.713 204.599 349.204C195.695 347.695 187.375 343.067 180.712 335.914V335.914Z" fill="white"/>
<path d="M210.926 350.384C199.621 350.373 188.727 345.371 180.374 336.355C173.713 329.205 168.989 319.882 166.796 309.56C164.603 299.238 165.04 288.379 168.051 278.35C171.062 268.321 176.513 259.571 183.718 253.202C190.923 246.833 199.558 243.129 208.538 242.557C217.517 241.986 226.439 244.572 234.179 249.99C241.919 255.408 248.131 263.416 252.034 273.005C255.936 282.594 257.354 293.335 256.109 303.876C254.864 314.416 251.012 324.285 245.037 332.24L254.64 344.98L249.285 347.668C241.819 351.417 234.497 347.725 230.653 345.054C224.497 348.556 217.756 350.377 210.926 350.384ZM181.05 335.473C187.625 342.575 195.853 347.172 204.665 348.665C213.476 350.157 222.463 348.478 230.457 343.844L230.702 343.703L230.936 343.869C234.547 346.432 241.682 350.193 248.892 346.573L252.955 344.533L243.686 332.235L243.99 331.839C249.91 324.112 253.762 314.481 255.058 304.164C256.354 293.847 255.036 283.306 251.27 273.876C247.505 264.445 241.462 256.548 233.904 251.182C226.347 245.817 217.615 243.224 208.812 243.733C200.01 244.241 191.533 247.828 184.453 254.038C177.373 260.249 172.008 268.805 169.036 278.625C166.064 288.445 165.619 299.087 167.758 309.206C169.896 319.325 174.522 328.466 181.05 335.473V335.473Z" fill="#24A640"/>
<path opacity="0.1" d="M172.943 296.076C172.944 283.81 176.825 271.99 183.821 262.941C190.818 253.893 200.423 248.274 210.745 247.189C209.538 247.064 208.316 246.996 207.08 246.996C196.086 247.003 185.545 252.177 177.773 261.38C170.001 270.584 165.635 283.064 165.635 296.076C165.635 309.088 170.001 321.568 177.773 330.772C185.545 339.975 196.086 345.149 207.08 345.156C208.314 345.156 209.534 345.088 210.74 344.963C200.418 343.876 190.815 338.256 183.819 329.208C176.824 320.16 172.944 308.341 172.943 296.076V296.076Z" fill="black"/>
<path d="M234.763 286.289H205.133V289.546H234.763V286.289Z" fill="#24A640"/>
<path d="M234.763 297.555H183.12V300.812H234.763V297.555Z" fill="#24A640"/>
<path d="M234.763 308.822H183.17V312.078H234.763V308.822Z" fill="#24A640"/>
<path d="M268.641 356.925C272.163 356.925 275.019 353.545 275.019 349.376C275.019 345.208 272.163 341.828 268.641 341.828C265.119 341.828 262.264 345.208 262.264 349.376C262.264 353.545 265.119 356.925 268.641 356.925Z" fill="#24A640"/>
<path d="M277.918 217.623C282.08 217.623 285.455 213.629 285.455 208.702C285.455 203.775 282.08 199.781 277.918 199.781C273.755 199.781 270.381 203.775 270.381 208.702C270.381 213.629 273.755 217.623 277.918 217.623Z" fill="#24A640"/>
</g>
<defs>
<clipPath id="clip0_24_72">
<rect width="436" height="468" fill="white"/>
</clipPath>
</defs>
</svg>
