<svg width="94" height="94" viewBox="0 0 94 94" fill="none" xmlns="http://www.w3.org/2000/svg">
<g clip-path="url(#clip0_80_45)">
<path d="M47 0C21.0431 0 0 21.0431 0 47C0 72.9569 21.0431 94 47 94C72.9569 94 94 72.9569 94 47C94 21.0431 72.9569 0 47 0ZM30.4993 17.3551H35.376V26.6439H30.4993V17.3551V17.3551ZM58.6235 17.3551H63.4946V26.6439H58.6235V17.3551ZM20.5272 21.8187H27.0161V30.1264H38.8579V21.8187H55.1349V30.1264H66.9824V21.8187H73.4714V34.8247H20.5271V21.8187H20.5272V21.8187ZM20.5272 38.2388H73.4715V76.6443H20.5272V38.2388V38.2388ZM41.3246 47.1144C37.6047 47.1335 34.0958 49.0382 34.0038 53.3108H38.2437C38.2632 51.6162 39.2996 50.5444 41.1869 50.4306C42.9586 50.4536 43.705 51.7551 43.7859 53.5804C43.7647 56.0619 40.9046 56.4293 38.8232 56.3859V59.7365C40.0965 59.7379 41.5554 59.6754 42.8622 60.2184C43.8753 60.6674 44.3012 61.859 44.3023 63.0239C44.2833 64.9526 43.3761 66.4593 41.0836 66.6155C39.2804 66.5906 38.4041 65.1812 38.3125 63.3281H34.0038C34.0038 67.7297 36.4441 69.9317 41.3246 69.9317C43.0552 69.9199 44.8212 69.2733 46.2816 68.1187C46.9922 67.5352 47.5682 66.805 47.9702 65.9781C48.3723 65.1512 48.5908 64.2472 48.6109 63.328C48.5942 60.4942 46.7666 58.7505 43.9923 58.0267C45.4705 57.508 46.9783 56.7037 47.7215 55.158C48.3151 53.8182 48.0606 52.2828 47.5838 50.8436C46.57 48.4344 44.0194 47.141 41.3246 47.1144ZM56.1959 47.5275C54.7363 48.9415 52.8886 50.0803 50.6537 50.9469V54.7106C52.5693 54.1405 54.3125 53.1818 55.8861 51.8362V69.5239H59.994V47.5273H56.1959V47.5275V47.5275Z" fill="#140A82"/>
</g>
<defs>
<clipPath id="clip0_80_45">
<rect width="94" height="94" fill="white"/>
</clipPath>
</defs>
</svg>
