<svg width="52" height="52" viewBox="0 0 52 52" fill="none" xmlns="http://www.w3.org/2000/svg">
<path d="M34.125 9.74997C34.1249 8.21263 33.6886 6.70687 32.8669 5.40758C32.0451 4.1083 30.8716 3.06881 29.4826 2.40985C28.0937 1.7509 26.5463 1.49952 25.0202 1.68491C23.494 1.87031 22.0518 2.48487 20.8611 3.45722C19.6703 4.42957 18.7798 5.7198 18.293 7.17804C17.8063 8.63629 17.7432 10.2027 18.1112 11.6954C18.4791 13.188 19.263 14.5457 20.3718 15.6106C21.4806 16.6755 22.8687 17.404 24.375 17.7115V46.4709C24.3752 46.9026 24.4611 47.33 24.6279 47.7283L25.6506 50.1658C25.6849 50.2285 25.7354 50.2808 25.7969 50.3173C25.8584 50.3537 25.9285 50.373 26 50.373C26.0715 50.373 26.1416 50.3537 26.2031 50.3173C26.2646 50.2808 26.3151 50.2285 26.3494 50.1658L27.3721 47.7283C27.5389 47.33 27.6248 46.9026 27.625 46.4709V17.7115C29.4589 17.3346 31.1068 16.3369 32.2908 14.8866C33.4749 13.4364 34.1227 11.6222 34.125 9.74997ZM28.4375 9.74997C27.9554 9.74997 27.4841 9.60702 27.0833 9.33918C26.6825 9.07134 26.37 8.69066 26.1855 8.24526C26.0011 7.79987 25.9528 7.30977 26.0468 6.83694C26.1409 6.36411 26.373 5.92979 26.7139 5.5889C27.0548 5.24801 27.4891 5.01586 27.962 4.92181C28.4348 4.82776 28.9249 4.87603 29.3703 5.06052C29.8157 5.245 30.1964 5.55742 30.4642 5.95827C30.732 6.35911 30.875 6.83038 30.875 7.31247C30.875 7.95894 30.6182 8.57893 30.1611 9.03605C29.704 9.49317 29.084 9.74997 28.4375 9.74997Z" fill="#140A82"/>
</svg>
