<svg width="466" height="472" viewBox="0 0 466 472" fill="none" xmlns="http://www.w3.org/2000/svg">
<g clip-path="url(#clip0_30_167)">
<path d="M466 236C466.081 291.709 446.626 345.636 411.104 388.167C409.814 389.719 408.5 391.246 407.161 392.764C391.412 410.705 373.066 426.121 352.749 438.486C348.089 441.32 343.327 443.99 338.463 446.497C337.971 446.75 337.471 447.004 336.979 447.249C336.391 447.551 335.794 447.845 335.198 448.139C322.889 454.241 310.067 459.22 296.886 463.017C295.515 463.409 294.142 463.79 292.766 464.161C275.426 468.808 257.613 471.408 239.684 471.91C238.748 471.935 237.829 471.951 236.942 471.967C236.628 471.976 236.322 471.984 236.015 471.984C235.008 471.992 234.008 472 233 472C214.105 472.014 195.279 469.703 176.935 465.116C175.097 464.659 173.267 464.177 171.444 463.671C161.847 461.017 152.429 457.735 143.251 453.847C138.413 451.805 133.662 449.603 128.997 447.24C127.94 446.701 126.884 446.162 125.844 445.607C125.401 445.387 124.965 445.15 124.53 444.921C99.6646 431.628 77.3659 413.908 58.7015 392.609C57.4115 391.148 56.1457 389.661 54.8961 388.167C34.3314 363.471 18.9914 334.761 9.82636 303.815C0.661278 272.87 -2.1338 240.349 1.61426 208.265C5.36231 176.181 15.5737 145.218 31.6159 117.294C47.6582 89.3701 69.1897 65.0793 94.8769 45.9261C96.1992 44.938 97.5295 43.9581 98.8759 43.0026C99.1419 42.8148 99.4079 42.627 99.674 42.4392C123.331 25.6546 149.885 13.5089 177.959 6.63087C179.555 6.23073 181.151 5.8551 182.764 5.50396C213.173 -1.23332 244.599 -1.79123 275.222 3.86256C276.827 4.16471 278.431 4.47502 280.027 4.80983C307.851 10.5902 334.387 21.5048 358.312 37.0087C358.844 37.3517 359.376 37.6947 359.908 38.054C360.981 38.7563 362.053 39.4749 363.109 40.2017C394.803 61.7832 420.766 90.9325 438.71 125.079C456.653 159.225 466.026 197.318 466 236Z" fill="#F2F2F2"/>
<path d="M174.145 358.091L99.674 364.787L98.8759 364.861V43.0026C99.1419 42.8148 99.4079 42.627 99.674 42.4392C115.195 31.4433 131.984 22.4099 149.668 15.5401L153.474 68.7013L153.82 73.5683L157.585 126.289L158.746 142.506L174.008 356.213L174.145 358.091Z" fill="#CCCCCC"/>
<path d="M358.312 37.0087C358.844 37.3517 359.376 37.6947 359.908 38.054V364.861L358.312 364.714L284.647 358.091L284.784 356.213L300.046 142.506L301.207 126.289L304.972 73.5683L305.319 68.7013L309.31 12.9514C326.52 18.9938 342.967 27.0685 358.312 37.0087V37.0087Z" fill="#CCCCCC"/>
<path d="M358.312 37.0087V369.32C358.312 375.697 353.975 380.883 348.637 380.883H109.349C104.931 380.883 101.182 377.322 100.045 372.464C99.7967 371.435 99.6722 370.379 99.674 369.32V42.4392C99.408 42.627 99.1419 42.8148 98.8758 43.0026C97.5294 43.9581 96.1992 44.938 94.8769 45.9261V369.32C94.8055 374.164 96.5916 378.847 99.8594 382.385C101.573 384.204 103.74 385.519 106.132 386.191C107.18 386.48 108.262 386.625 109.349 386.624H348.637C349.726 386.625 350.811 386.479 351.862 386.191C358.296 384.435 363.109 377.543 363.109 369.32V40.2017C362.053 39.4749 360.981 38.7563 359.908 38.054C359.376 37.6947 358.844 37.3517 358.312 37.0087Z" fill="#CCCCCC"/>
<path d="M360.713 68.7046H97.2756V73.5708H360.713V68.7046Z" fill="#CCCCCC"/>
<path d="M177.959 6.63086C179.555 6.23073 181.151 5.85509 182.764 5.50395V137.639H177.959V6.63086Z" fill="#CCCCCC"/>
<path d="M275.222 3.86256C276.827 4.1647 278.431 4.47502 280.027 4.80983V137.639H275.222V3.86256Z" fill="#CCCCCC"/>
<path d="M390.739 356.213H75.2534C69.5186 356.213 64.0187 358.52 59.9636 362.628C55.9085 366.735 53.6303 372.306 53.6303 378.115C53.6303 383.923 55.9085 389.494 59.9636 393.601C64.0187 397.708 69.5186 400.016 75.2534 400.016H390.739C393.809 400.017 396.845 399.353 399.642 398.07C402.44 396.787 404.935 394.914 406.96 392.577C407.877 391.52 408.692 390.377 409.395 389.163C409.939 388.233 410.41 387.261 410.806 386.256C412.123 382.933 412.615 379.334 412.239 375.774C411.863 372.214 410.631 368.802 408.65 365.836C406.669 362.87 404.001 360.442 400.878 358.765C397.755 357.087 394.274 356.211 390.739 356.213V356.213Z" fill="#CCCCCC"/>
<path d="M360.713 126.288H98.8771V142.508H360.713V126.288Z" fill="#CCCCCC"/>
<path d="M227.393 121.422H232.197C233.354 121.422 234.499 121.652 235.568 122.101C236.636 122.549 237.607 123.206 238.425 124.035C239.243 124.863 239.892 125.846 240.334 126.929C240.777 128.011 241.005 129.171 241.005 130.343V130.343H218.585C218.585 127.977 219.513 125.708 221.164 124.035C222.816 122.361 225.057 121.422 227.393 121.422H227.393Z" fill="#CCCCCC"/>
<path d="M411.104 388.167C404.1 396.573 396.524 404.472 388.433 411.808H77.5672C69.4755 404.472 61.9 396.573 54.8961 388.167H411.104Z" fill="#3F3D56"/>
<path d="M259.025 306.286H206.685C206.403 306.282 206.122 306.327 205.854 306.416C205.286 306.594 204.789 306.952 204.437 307.437C204.084 307.922 203.894 308.509 203.895 309.111V392.862H261.823V309.111C261.822 308.739 261.75 308.371 261.609 308.028C261.468 307.685 261.262 307.373 261.002 307.111C260.742 306.849 260.434 306.641 260.095 306.499C259.755 306.357 259.392 306.285 259.025 306.286ZM239.216 347.606C239.218 348.964 238.776 350.285 237.958 351.362C237.178 352.408 236.094 353.179 234.859 353.567C233.623 353.955 232.298 353.94 231.071 353.526C229.844 353.111 228.777 352.316 228.019 351.254C227.262 350.192 226.852 348.916 226.848 347.606V337.888C226.864 336.237 227.522 334.659 228.68 333.497C229.838 332.335 231.402 331.683 233.032 331.683C234.662 331.683 236.227 332.335 237.385 333.497C238.543 334.659 239.201 336.237 239.216 337.888V347.606Z" fill="#2F2E41"/>
<path d="M203.718 390.184V398.26C203.718 398.679 203.881 399.081 204.173 399.378C204.465 399.674 204.86 399.842 205.274 399.844H260.444C260.857 399.841 261.252 399.673 261.543 399.376C261.835 399.079 261.999 398.679 262 398.26V390.184H203.718Z" fill="#3F3D56"/>
<path d="M345.695 175.587H121.966C120.044 175.59 118.201 176.364 116.841 177.74C115.481 179.116 114.715 180.982 114.71 182.929V335.847C114.712 337.796 115.477 339.664 116.837 341.042C118.198 342.42 120.042 343.195 121.966 343.196H345.695C347.619 343.195 349.463 342.42 350.824 341.042C352.184 339.664 352.949 337.796 352.951 335.847V182.929C352.946 180.982 352.18 179.116 350.82 177.74C349.46 176.364 347.617 175.59 345.695 175.587V175.587Z" fill="#3F3D56"/>
<path d="M343.824 180.895H123.829C122.799 180.897 121.813 181.313 121.086 182.051C120.359 182.789 119.951 183.789 119.951 184.831V333.96C119.952 335.002 120.362 336 121.088 336.736C121.815 337.472 122.801 337.887 123.829 337.888H343.824C344.852 337.887 345.837 337.472 346.564 336.736C347.291 336 347.7 335.002 347.702 333.96V184.831C347.702 183.789 347.294 182.789 346.567 182.051C345.84 181.313 344.853 180.897 343.824 180.895V180.895Z" fill="#00B0CC"/>
<path d="M303.335 399.714L301.304 389.939C301.219 389.54 301.038 389.169 300.776 388.86C300.514 388.55 300.18 388.312 299.804 388.167C299.532 388.059 299.242 388.003 298.949 388.004H172.122C171.829 388.003 171.539 388.059 171.267 388.167C170.891 388.312 170.557 388.55 170.295 388.86C170.033 389.169 169.852 389.54 169.767 389.939L167.736 399.714C167.662 400.069 167.668 400.436 167.752 400.788C167.836 401.14 167.997 401.469 168.222 401.751C168.448 402.032 168.733 402.26 169.056 402.416C169.379 402.572 169.732 402.653 170.09 402.654H300.973C301.332 402.655 301.687 402.575 302.011 402.418C302.335 402.261 302.62 402.031 302.844 401.747C303.069 401.466 303.231 401.138 303.316 400.787C303.401 400.435 303.408 400.068 303.335 399.714V399.714Z" fill="#2F2E41"/>
<path d="M176.689 389.764H173.445C173.227 389.764 173.051 389.943 173.051 390.163V391.815C173.051 392.035 173.227 392.214 173.445 392.214H176.689C176.906 392.214 177.082 392.035 177.082 391.815V390.163C177.082 389.943 176.906 389.764 176.689 389.764Z" fill="#3F3D56"/>
<path d="M184.751 389.764H181.507C181.29 389.764 181.114 389.943 181.114 390.163V391.815C181.114 392.035 181.29 392.214 181.507 392.214H184.751C184.969 392.214 185.145 392.035 185.145 391.815V390.163C185.145 389.943 184.969 389.764 184.751 389.764Z" fill="#3F3D56"/>
<path d="M192.813 389.764H189.569C189.352 389.764 189.176 389.943 189.176 390.163V391.815C189.176 392.035 189.352 392.214 189.569 392.214H192.813C193.031 392.214 193.207 392.035 193.207 391.815V390.163C193.207 389.943 193.031 389.764 192.813 389.764Z" fill="#3F3D56"/>
<path d="M200.876 389.764H197.632C197.414 389.764 197.238 389.943 197.238 390.163V391.815C197.238 392.035 197.414 392.214 197.632 392.214H200.876C201.093 392.214 201.269 392.035 201.269 391.815V390.163C201.269 389.943 201.093 389.764 200.876 389.764Z" fill="#3F3D56"/>
<path d="M208.938 389.764H205.694C205.477 389.764 205.3 389.943 205.3 390.163V391.815C205.3 392.035 205.477 392.214 205.694 392.214H208.938C209.155 392.214 209.332 392.035 209.332 391.815V390.163C209.332 389.943 209.155 389.764 208.938 389.764Z" fill="#3F3D56"/>
<path d="M217 389.764H213.756C213.539 389.764 213.363 389.943 213.363 390.163V391.815C213.363 392.035 213.539 392.214 213.756 392.214H217C217.218 392.214 217.394 392.035 217.394 391.815V390.163C217.394 389.943 217.218 389.764 217 389.764Z" fill="#3F3D56"/>
<path d="M225.063 389.764H221.819C221.601 389.764 221.425 389.943 221.425 390.163V391.815C221.425 392.035 221.601 392.214 221.819 392.214H225.063C225.28 392.214 225.456 392.035 225.456 391.815V390.163C225.456 389.943 225.28 389.764 225.063 389.764Z" fill="#3F3D56"/>
<path d="M233.125 389.764H229.881C229.663 389.764 229.487 389.943 229.487 390.163V391.815C229.487 392.035 229.663 392.214 229.881 392.214H233.125C233.342 392.214 233.518 392.035 233.518 391.815V390.163C233.518 389.943 233.342 389.764 233.125 389.764Z" fill="#3F3D56"/>
<path d="M241.187 389.764H237.943C237.726 389.764 237.55 389.943 237.55 390.163V391.815C237.55 392.035 237.726 392.214 237.943 392.214H241.187C241.404 392.214 241.581 392.035 241.581 391.815V390.163C241.581 389.943 241.404 389.764 241.187 389.764Z" fill="#3F3D56"/>
<path d="M249.249 389.764H246.005C245.788 389.764 245.612 389.943 245.612 390.163V391.815C245.612 392.035 245.788 392.214 246.005 392.214H249.249C249.467 392.214 249.643 392.035 249.643 391.815V390.163C249.643 389.943 249.467 389.764 249.249 389.764Z" fill="#3F3D56"/>
<path d="M257.312 389.764H254.068C253.85 389.764 253.674 389.943 253.674 390.163V391.815C253.674 392.035 253.85 392.214 254.068 392.214H257.312C257.529 392.214 257.705 392.035 257.705 391.815V390.163C257.705 389.943 257.529 389.764 257.312 389.764Z" fill="#3F3D56"/>
<path d="M265.374 389.764H262.13C261.913 389.764 261.736 389.943 261.736 390.163V391.815C261.736 392.035 261.913 392.214 262.13 392.214H265.374C265.591 392.214 265.768 392.035 265.768 391.815V390.163C265.768 389.943 265.591 389.764 265.374 389.764Z" fill="#3F3D56"/>
<path d="M273.436 389.764H270.192C269.975 389.764 269.799 389.943 269.799 390.163V391.815C269.799 392.035 269.975 392.214 270.192 392.214H273.436C273.654 392.214 273.83 392.035 273.83 391.815V390.163C273.83 389.943 273.654 389.764 273.436 389.764Z" fill="#3F3D56"/>
<path d="M281.499 389.764H278.255C278.037 389.764 277.861 389.943 277.861 390.163V391.815C277.861 392.035 278.037 392.214 278.255 392.214H281.499C281.716 392.214 281.892 392.035 281.892 391.815V390.163C281.892 389.943 281.716 389.764 281.499 389.764Z" fill="#3F3D56"/>
<path d="M289.561 389.764H286.317C286.099 389.764 285.923 389.943 285.923 390.163V391.815C285.923 392.035 286.099 392.214 286.317 392.214H289.561C289.778 392.214 289.954 392.035 289.954 391.815V390.163C289.954 389.943 289.778 389.764 289.561 389.764Z" fill="#3F3D56"/>
<path d="M297.623 389.764H294.379C294.162 389.764 293.986 389.943 293.986 390.163V391.815C293.986 392.035 294.162 392.214 294.379 392.214H297.623C297.84 392.214 298.017 392.035 298.017 391.815V390.163C298.017 389.943 297.84 389.764 297.623 389.764Z" fill="#3F3D56"/>
<path d="M176.594 393.847H173.35C173.132 393.847 172.956 394.026 172.956 394.246V395.898C172.956 396.118 173.132 396.297 173.35 396.297H176.594C176.811 396.297 176.987 396.118 176.987 395.898V394.246C176.987 394.026 176.811 393.847 176.594 393.847Z" fill="#3F3D56"/>
<path d="M184.656 393.847H181.412C181.195 393.847 181.018 394.026 181.018 394.246V395.898C181.018 396.118 181.195 396.297 181.412 396.297H184.656C184.873 396.297 185.049 396.118 185.049 395.898V394.246C185.049 394.026 184.873 393.847 184.656 393.847Z" fill="#3F3D56"/>
<path d="M192.718 393.847H189.474C189.257 393.847 189.081 394.026 189.081 394.246V395.898C189.081 396.118 189.257 396.297 189.474 396.297H192.718C192.935 396.297 193.112 396.118 193.112 395.898V394.246C193.112 394.026 192.935 393.847 192.718 393.847Z" fill="#3F3D56"/>
<path d="M200.78 393.847H197.536C197.319 393.847 197.143 394.026 197.143 394.246V395.898C197.143 396.118 197.319 396.297 197.536 396.297H200.78C200.998 396.297 201.174 396.118 201.174 395.898V394.246C201.174 394.026 200.998 393.847 200.78 393.847Z" fill="#3F3D56"/>
<path d="M208.843 393.847H205.599C205.381 393.847 205.205 394.026 205.205 394.246V395.898C205.205 396.118 205.381 396.297 205.599 396.297H208.843C209.06 396.297 209.236 396.118 209.236 395.898V394.246C209.236 394.026 209.06 393.847 208.843 393.847Z" fill="#3F3D56"/>
<path d="M216.905 393.847H213.661C213.444 393.847 213.267 394.026 213.267 394.246V395.898C213.267 396.118 213.444 396.297 213.661 396.297H216.905C217.122 396.297 217.299 396.118 217.299 395.898V394.246C217.299 394.026 217.122 393.847 216.905 393.847Z" fill="#3F3D56"/>
<path d="M224.967 393.847H221.723C221.506 393.847 221.33 394.026 221.33 394.246V395.898C221.33 396.118 221.506 396.297 221.723 396.297H224.967C225.185 396.297 225.361 396.118 225.361 395.898V394.246C225.361 394.026 225.185 393.847 224.967 393.847Z" fill="#3F3D56"/>
<path d="M233.03 393.847H229.786C229.568 393.847 229.392 394.026 229.392 394.246V395.898C229.392 396.118 229.568 396.297 229.786 396.297H233.03C233.247 396.297 233.423 396.118 233.423 395.898V394.246C233.423 394.026 233.247 393.847 233.03 393.847Z" fill="#3F3D56"/>
<path d="M241.092 393.847H237.848C237.631 393.847 237.454 394.026 237.454 394.246V395.898C237.454 396.118 237.631 396.297 237.848 396.297H241.092C241.309 396.297 241.485 396.118 241.485 395.898V394.246C241.485 394.026 241.309 393.847 241.092 393.847Z" fill="#3F3D56"/>
<path d="M249.154 393.847H245.91C245.693 393.847 245.517 394.026 245.517 394.246V395.898C245.517 396.118 245.693 396.297 245.91 396.297H249.154C249.371 396.297 249.548 396.118 249.548 395.898V394.246C249.548 394.026 249.371 393.847 249.154 393.847Z" fill="#3F3D56"/>
<path d="M257.216 393.847H253.972C253.755 393.847 253.579 394.026 253.579 394.246V395.898C253.579 396.118 253.755 396.297 253.972 396.297H257.216C257.434 396.297 257.61 396.118 257.61 395.898V394.246C257.61 394.026 257.434 393.847 257.216 393.847Z" fill="#3F3D56"/>
<path d="M265.279 393.847H262.035C261.817 393.847 261.641 394.026 261.641 394.246V395.898C261.641 396.118 261.817 396.297 262.035 396.297H265.279C265.496 396.297 265.672 396.118 265.672 395.898V394.246C265.672 394.026 265.496 393.847 265.279 393.847Z" fill="#3F3D56"/>
<path d="M273.341 393.847H270.097C269.88 393.847 269.703 394.026 269.703 394.246V395.898C269.703 396.118 269.88 396.297 270.097 396.297H273.341C273.558 396.297 273.735 396.118 273.735 395.898V394.246C273.735 394.026 273.558 393.847 273.341 393.847Z" fill="#3F3D56"/>
<path d="M281.403 393.847H278.159C277.942 393.847 277.766 394.026 277.766 394.246V395.898C277.766 396.118 277.942 396.297 278.159 396.297H281.403C281.621 396.297 281.797 396.118 281.797 395.898V394.246C281.797 394.026 281.621 393.847 281.403 393.847Z" fill="#3F3D56"/>
<path d="M289.466 393.847H286.222C286.004 393.847 285.828 394.026 285.828 394.246V395.898C285.828 396.118 286.004 396.297 286.222 396.297H289.466C289.683 396.297 289.859 396.118 289.859 395.898V394.246C289.859 394.026 289.683 393.847 289.466 393.847Z" fill="#3F3D56"/>
<path d="M297.528 393.847H294.284C294.066 393.847 293.89 394.026 293.89 394.246V395.898C293.89 396.118 294.066 396.297 294.284 396.297H297.528C297.745 396.297 297.921 396.118 297.921 395.898V394.246C297.921 394.026 297.745 393.847 297.528 393.847Z" fill="#3F3D56"/>
<path d="M243.511 398.747H212.049C211.831 398.747 211.655 398.925 211.655 399.145V400.798C211.655 401.018 211.831 401.197 212.049 401.197H243.511C243.728 401.197 243.904 401.018 243.904 400.798V399.145C243.904 398.925 243.728 398.747 243.511 398.747Z" fill="#3F3D56"/>
<path d="M332.769 201.438H126.92C126.706 201.434 126.503 201.344 126.353 201.189C126.203 201.034 126.12 200.826 126.12 200.609C126.12 200.392 126.203 200.184 126.353 200.029C126.503 199.874 126.706 199.785 126.92 199.78H332.769C332.983 199.785 333.187 199.874 333.337 200.029C333.486 200.184 333.57 200.392 333.57 200.609C333.57 200.826 333.486 201.034 333.337 201.189C333.187 201.344 332.983 201.434 332.769 201.438V201.438Z" fill="#3F3D56"/>
<path d="M140.933 195.547C143.582 195.547 145.73 193.323 145.73 190.579C145.73 187.836 143.582 185.612 140.933 185.612C138.283 185.612 136.135 187.836 136.135 190.579C136.135 193.323 138.283 195.547 140.933 195.547Z" fill="#3F3D56"/>
<path d="M157.506 195.547C160.155 195.547 162.303 193.323 162.303 190.579C162.303 187.836 160.155 185.612 157.506 185.612C154.856 185.612 152.708 187.836 152.708 190.579C152.708 193.323 154.856 195.547 157.506 195.547Z" fill="#3F3D56"/>
<path d="M174.078 195.547C176.728 195.547 178.876 193.323 178.876 190.579C178.876 187.836 176.728 185.612 174.078 185.612C171.429 185.612 169.281 187.836 169.281 190.579C169.281 193.323 171.429 195.547 174.078 195.547Z" fill="#3F3D56"/>
<path d="M322.79 186.84H311.019C310.786 186.846 310.565 186.943 310.402 187.112C310.239 187.28 310.148 187.507 310.148 187.743C310.148 187.978 310.239 188.205 310.402 188.373C310.565 188.542 310.786 188.639 311.019 188.645H322.79C323.024 188.642 323.247 188.545 323.412 188.376C323.576 188.207 323.668 187.98 323.668 187.743C323.668 187.505 323.576 187.278 323.412 187.109C323.247 186.94 323.024 186.843 322.79 186.84Z" fill="#3F3D56"/>
<path d="M322.79 190.229H311.019C310.786 190.234 310.564 190.332 310.401 190.5C310.239 190.669 310.147 190.895 310.147 191.131C310.147 191.367 310.239 191.594 310.401 191.763C310.564 191.931 310.786 192.029 311.019 192.034H322.79C323.024 192.031 323.248 191.935 323.413 191.766C323.578 191.597 323.67 191.369 323.67 191.131C323.67 190.894 323.578 190.666 323.413 190.497C323.248 190.328 323.024 190.232 322.79 190.229V190.229Z" fill="#3F3D56"/>
<path d="M322.79 193.618H311.019C310.786 193.623 310.565 193.721 310.402 193.89C310.239 194.058 310.148 194.285 310.148 194.52C310.148 194.756 310.239 194.982 310.402 195.151C310.565 195.32 310.786 195.417 311.019 195.423H322.79C323.024 195.419 323.247 195.323 323.412 195.154C323.576 194.985 323.668 194.757 323.668 194.52C323.668 194.283 323.576 194.056 323.412 193.887C323.247 193.718 323.024 193.621 322.79 193.618V193.618Z" fill="#3F3D56"/>
<path d="M144.67 220.708H140.44C139.158 220.708 138.118 221.761 138.118 223.059C138.118 224.358 139.158 225.411 140.44 225.411H144.67C145.952 225.411 146.992 224.358 146.992 223.059C146.992 221.761 145.952 220.708 144.67 220.708Z" fill="#E6E6E6"/>
<path d="M193.044 220.708H188.814C187.532 220.708 186.492 221.761 186.492 223.059C186.492 224.358 187.532 225.411 188.814 225.411H193.044C194.326 225.411 195.365 224.358 195.365 223.059C195.365 221.761 194.326 220.708 193.044 220.708Z" fill="#E6E6E6"/>
<path d="M206.749 220.708H202.52C201.237 220.708 200.198 221.761 200.198 223.059C200.198 224.358 201.237 225.411 202.52 225.411H206.749C208.032 225.411 209.071 224.358 209.071 223.059C209.071 221.761 208.032 220.708 206.749 220.708Z" fill="#E6E6E6"/>
<path d="M179.886 220.315H153.598C152.316 220.315 151.276 221.368 151.276 222.667C151.276 223.966 152.316 225.019 153.598 225.019H179.886C181.168 225.019 182.208 223.966 182.208 222.667C182.208 221.368 181.168 220.315 179.886 220.315Z" fill="#E6E6E6"/>
<path d="M244.384 220.315H218.096C216.814 220.315 215.774 221.368 215.774 222.667C215.774 223.966 216.814 225.019 218.096 225.019H244.384C245.666 225.019 246.706 223.966 246.706 222.667C246.706 221.368 245.666 220.315 244.384 220.315Z" fill="#E6E6E6"/>
<path d="M157.569 231.324H153.34C152.058 231.324 151.018 232.376 151.018 233.675C151.018 234.974 152.058 236.027 153.34 236.027H157.569C158.852 236.027 159.891 234.974 159.891 233.675C159.891 232.376 158.852 231.324 157.569 231.324Z" fill="#E6E6E6"/>
<path d="M205.943 231.324H201.714C200.431 231.324 199.392 232.376 199.392 233.675C199.392 234.974 200.431 236.027 201.714 236.027H205.943C207.226 236.027 208.265 234.974 208.265 233.675C208.265 232.376 207.226 231.324 205.943 231.324Z" fill="#E6E6E6"/>
<path d="M219.649 231.324H215.419C214.137 231.324 213.098 232.376 213.098 233.675C213.098 234.974 214.137 236.027 215.419 236.027H219.649C220.931 236.027 221.971 234.974 221.971 233.675C221.971 232.376 220.931 231.324 219.649 231.324Z" fill="#E6E6E6"/>
<path d="M192.785 230.931H166.498C165.215 230.931 164.176 231.984 164.176 233.283C164.176 234.582 165.215 235.635 166.498 235.635H192.785C194.068 235.635 195.107 234.582 195.107 233.283C195.107 231.984 194.068 230.931 192.785 230.931Z" fill="#E6E6E6"/>
<path d="M257.284 230.931H230.996C229.714 230.931 228.674 231.984 228.674 233.283C228.674 234.582 229.714 235.635 230.996 235.635H257.284C258.566 235.635 259.606 234.582 259.606 233.283C259.606 231.984 258.566 230.931 257.284 230.931Z" fill="#E6E6E6"/>
<path d="M170.469 241.939H166.24C164.957 241.939 163.918 242.992 163.918 244.291C163.918 245.59 164.957 246.643 166.24 246.643H170.469C171.751 246.643 172.791 245.59 172.791 244.291C172.791 242.992 171.751 241.939 170.469 241.939Z" fill="#E6E6E6"/>
<path d="M218.843 241.939H214.613C213.331 241.939 212.291 242.992 212.291 244.291C212.291 245.59 213.331 246.643 214.613 246.643H218.843C220.125 246.643 221.165 245.59 221.165 244.291C221.165 242.992 220.125 241.939 218.843 241.939Z" fill="#E6E6E6"/>
<path d="M232.549 241.939H228.319C227.037 241.939 225.997 242.992 225.997 244.291C225.997 245.59 227.037 246.643 228.319 246.643H232.549C233.831 246.643 234.871 245.59 234.871 244.291C234.871 242.992 233.831 241.939 232.549 241.939Z" fill="#E6E6E6"/>
<path d="M205.685 241.547H179.397C178.115 241.547 177.075 242.6 177.075 243.899C177.075 245.198 178.115 246.251 179.397 246.251H205.685C206.967 246.251 208.007 245.198 208.007 243.899C208.007 242.6 206.967 241.547 205.685 241.547Z" fill="#E6E6E6"/>
<path d="M270.183 241.547H243.896C242.613 241.547 241.574 242.6 241.574 243.899C241.574 245.198 242.613 246.251 243.896 246.251H270.183C271.466 246.251 272.505 245.198 272.505 243.899C272.505 242.6 271.466 241.547 270.183 241.547Z" fill="#E6E6E6"/>
<path d="M183.369 252.555H179.139C177.857 252.555 176.817 253.608 176.817 254.907C176.817 256.206 177.857 257.259 179.139 257.259H183.369C184.651 257.259 185.691 256.206 185.691 254.907C185.691 253.608 184.651 252.555 183.369 252.555Z" fill="#E6E6E6"/>
<path d="M231.742 252.555H227.513C226.231 252.555 225.191 253.608 225.191 254.907C225.191 256.206 226.231 257.259 227.513 257.259H231.742C233.025 257.259 234.064 256.206 234.064 254.907C234.064 253.608 233.025 252.555 231.742 252.555Z" fill="#E6E6E6"/>
<path d="M245.448 252.555H241.219C239.936 252.555 238.897 253.608 238.897 254.907C238.897 256.206 239.936 257.259 241.219 257.259H245.448C246.731 257.259 247.77 256.206 247.77 254.907C247.77 253.608 246.731 252.555 245.448 252.555Z" fill="#E6E6E6"/>
<path d="M218.585 252.163H192.297C191.015 252.163 189.975 253.216 189.975 254.515C189.975 255.814 191.015 256.867 192.297 256.867H218.585C219.867 256.867 220.907 255.814 220.907 254.515C220.907 253.216 219.867 252.163 218.585 252.163Z" fill="#E6E6E6"/>
<path d="M193.044 294.769H188.814C187.532 294.769 186.492 295.822 186.492 297.121C186.492 298.419 187.532 299.472 188.814 299.472H193.044C194.326 299.472 195.365 298.419 195.365 297.121C195.365 295.822 194.326 294.769 193.044 294.769Z" fill="#E6E6E6"/>
<path d="M206.749 294.769H202.52C201.237 294.769 200.198 295.822 200.198 297.121C200.198 298.419 201.237 299.472 202.52 299.472H206.749C208.032 299.472 209.071 298.419 209.071 297.121C209.071 295.822 208.032 294.769 206.749 294.769Z" fill="#E6E6E6"/>
<path d="M244.384 295.161H218.096C216.814 295.161 215.774 296.214 215.774 297.513C215.774 298.812 216.814 299.864 218.096 299.864H244.384C245.666 299.864 246.706 298.812 246.706 297.513C246.706 296.214 245.666 295.161 244.384 295.161Z" fill="#E6E6E6"/>
<path d="M144.67 294.769H140.44C139.158 294.769 138.118 295.822 138.118 297.121C138.118 298.419 139.158 299.472 140.44 299.472H144.67C145.952 299.472 146.992 298.419 146.992 297.121C146.992 295.822 145.952 294.769 144.67 294.769Z" fill="#E6E6E6"/>
<path d="M179.886 295.161H153.598C152.316 295.161 151.276 296.214 151.276 297.513C151.276 298.812 152.316 299.864 153.598 299.864H179.886C181.168 299.864 182.208 298.812 182.208 297.513C182.208 296.214 181.168 295.161 179.886 295.161Z" fill="#E6E6E6"/>
<path d="M157.569 284.153H153.34C152.058 284.153 151.018 285.206 151.018 286.505C151.018 287.804 152.058 288.856 153.34 288.856H157.569C158.852 288.856 159.891 287.804 159.891 286.505C159.891 285.206 158.852 284.153 157.569 284.153Z" fill="#E6E6E6"/>
<path d="M205.943 284.153H201.714C200.431 284.153 199.392 285.206 199.392 286.505C199.392 287.804 200.431 288.856 201.714 288.856H205.943C207.226 288.856 208.265 287.804 208.265 286.505C208.265 285.206 207.226 284.153 205.943 284.153Z" fill="#E6E6E6"/>
<path d="M219.649 284.153H215.419C214.137 284.153 213.098 285.206 213.098 286.505C213.098 287.804 214.137 288.856 215.419 288.856H219.649C220.931 288.856 221.971 287.804 221.971 286.505C221.971 285.206 220.931 284.153 219.649 284.153Z" fill="#E6E6E6"/>
<path d="M192.785 284.545H166.498C165.215 284.545 164.176 285.598 164.176 286.897C164.176 288.196 165.215 289.249 166.498 289.249H192.785C194.068 289.249 195.107 288.196 195.107 286.897C195.107 285.598 194.068 284.545 192.785 284.545Z" fill="#E6E6E6"/>
<path d="M170.469 273.537H166.24C164.957 273.537 163.918 274.59 163.918 275.889C163.918 277.188 164.957 278.24 166.24 278.24H170.469C171.751 278.24 172.791 277.188 172.791 275.889C172.791 274.59 171.751 273.537 170.469 273.537Z" fill="#E6E6E6"/>
<path d="M218.843 273.537H214.613C213.331 273.537 212.291 274.59 212.291 275.889C212.291 277.188 213.331 278.24 214.613 278.24H218.843C220.125 278.24 221.165 277.188 221.165 275.889C221.165 274.59 220.125 273.537 218.843 273.537Z" fill="#E6E6E6"/>
<path d="M232.549 273.537H228.319C227.037 273.537 225.997 274.59 225.997 275.889C225.997 277.188 227.037 278.24 228.319 278.24H232.549C233.831 278.24 234.871 277.188 234.871 275.889C234.871 274.59 233.831 273.537 232.549 273.537Z" fill="#E6E6E6"/>
<path d="M205.685 273.929H179.397C178.115 273.929 177.075 274.982 177.075 276.281C177.075 277.58 178.115 278.633 179.397 278.633H205.685C206.967 278.633 208.007 277.58 208.007 276.281C208.007 274.982 206.967 273.929 205.685 273.929Z" fill="#E6E6E6"/>
<path d="M183.369 262.921H179.139C177.857 262.921 176.817 263.974 176.817 265.273C176.817 266.572 177.857 267.625 179.139 267.625H183.369C184.651 267.625 185.691 266.572 185.691 265.273C185.691 263.974 184.651 262.921 183.369 262.921Z" fill="#E6E6E6"/>
<path d="M231.742 262.921H227.513C226.231 262.921 225.191 263.974 225.191 265.273C225.191 266.572 226.231 267.625 227.513 267.625H231.742C233.025 267.625 234.064 266.572 234.064 265.273C234.064 263.974 233.025 262.921 231.742 262.921Z" fill="#E6E6E6"/>
<path d="M245.448 262.921H241.219C239.936 262.921 238.897 263.974 238.897 265.273C238.897 266.572 239.936 267.625 241.219 267.625H245.448C246.731 267.625 247.77 266.572 247.77 265.273C247.77 263.974 246.731 262.921 245.448 262.921Z" fill="#E6E6E6"/>
<path d="M218.585 263.313H192.297C191.015 263.313 189.975 264.366 189.975 265.665C189.975 266.964 191.015 268.017 192.297 268.017H218.585C219.867 268.017 220.907 266.964 220.907 265.665C220.907 264.366 219.867 263.313 218.585 263.313Z" fill="#E6E6E6"/>
<path d="M335.238 448.131C334.746 448.384 334.246 448.637 333.754 448.882C321.016 455.333 310.825 459 296.886 463.017C295.708 449.707 294.572 426.311 293.467 411.808C293.177 408.043 292.887 404.883 292.604 402.654C292.533 401.468 292.294 400.299 291.895 399.183L291.943 402.654L292.064 411.808L292.766 464.161C275.426 468.808 257.613 471.408 239.684 471.91C238.748 471.935 237.829 471.951 236.942 471.967C236.628 471.976 236.322 471.984 236.015 471.984C235.007 471.992 234.008 472 233 472C214.105 472.014 195.279 469.703 176.935 465.116C177.33 451.944 177.725 428.81 178.104 411.808C178.184 408.484 178.257 405.389 178.338 402.654C178.491 396.807 178.652 392.593 178.805 391.18C178.67 391.431 178.564 391.696 178.491 391.972C177.744 395.494 177.235 399.062 176.967 402.654C176.685 405.389 176.403 408.484 176.121 411.808C174.621 429.471 173.057 453.487 171.444 463.671C161.847 461.017 152.429 457.735 143.251 453.847C138.413 451.805 133.662 449.603 128.997 447.24C129.883 441.361 130.811 434.771 131.762 427.936C132.504 422.636 133.27 417.189 134.052 411.808C135.261 403.495 136.503 395.345 137.76 388.167C139.598 377.682 141.485 369.254 143.355 365.384C145.129 361.709 146.903 358.083 148.62 354.612C149.217 353.396 149.813 352.195 150.394 351.028C150.531 350.75 150.668 350.48 150.805 350.211C152.039 347.753 153.232 345.401 154.369 343.196C155.344 341.31 156.271 339.53 157.15 337.888C159.278 333.903 161.084 330.727 162.423 328.718C168.018 320.121 176.348 313.721 186.029 310.581L186.271 310.516L186.44 310.589L202.928 305.461L205.338 304.71L206.959 304.203L212.667 299.802L215.771 297.409L218.681 295.163L224.373 290.778L259.614 292.975L266.475 309.707L281.841 315.399L282.107 315.276L282.341 315.178L282.583 315.244C292.263 318.387 300.592 324.786 306.189 333.381C306.947 334.532 307.866 336.051 308.906 337.888C309.793 339.448 310.761 341.228 311.809 343.196C313.3 345.997 314.929 349.158 316.654 352.579C317.033 353.33 317.42 354.098 317.807 354.874C318.525 356.311 319.253 357.778 319.992 359.275C321.709 362.746 323.483 366.372 325.257 370.055C326.797 373.247 328.353 379.813 329.884 388.167C331.15 395.108 332.408 403.291 333.625 411.808C335.222 422.848 333.521 436.069 334.964 446.228C335.052 446.873 335.149 447.502 335.238 448.131Z" fill="#3F3D56"/>
<path d="M233.496 277.422C256.132 277.422 274.482 258.836 274.482 235.909C274.482 212.981 256.132 194.395 233.496 194.395C210.86 194.395 192.51 212.981 192.51 235.909C192.51 258.836 210.86 277.422 233.496 277.422Z" fill="#A0616A"/>
<path d="M301.086 180.895C300.276 178.98 299.198 177.192 297.885 175.587C291.661 167.887 280.342 164.498 268.724 173.611C266.488 173.105 264.156 173.241 261.992 174.003C260.97 174.378 260.013 174.912 259.154 175.587C257.395 176.977 256.022 178.806 255.171 180.895C254.716 181.998 254.418 183.161 254.284 184.349C251.413 182.838 248.373 181.679 245.23 180.895C237.519 178.952 229.456 178.952 221.745 180.895C219.274 181.528 216.895 182.484 214.666 183.737C210.893 185.942 208.724 188.726 208.337 191.821C202.895 192.132 197.236 195.031 193.019 199.783C192.543 200.314 192.084 200.869 191.657 201.441C188.111 206.141 186.205 211.899 186.239 217.814V218.851H187.263C190.068 218.848 192.847 219.398 195.446 220.468C197.13 221.153 198.724 222.045 200.195 223.122C201.156 223.813 202.065 224.578 202.912 225.409C204.875 227.334 206.539 229.551 207.846 231.982C211.195 238.127 212.357 245.252 211.135 252.161C210.855 253.76 210.445 255.333 209.91 256.864C209.148 259.049 208.145 261.139 206.918 263.095C206.87 263.169 206.83 263.242 206.781 263.316C206.241 264.189 205.725 265.079 205.242 265.978C204.879 266.647 204.54 267.333 204.226 268.019C203.307 269.928 202.531 271.905 201.904 273.931C200.782 277.516 200.12 281.232 199.937 284.988C199.88 285.985 199.864 286.981 199.896 287.977C199.944 290.545 200.222 293.104 200.727 295.621C200.799 295.964 200.872 296.298 200.944 296.641L201.533 299.246L202.928 305.461L203.895 309.74L204.79 313.709L206.112 311.79C206.564 311.136 207.701 309.127 209.224 306.286C210.232 304.432 211.401 302.219 212.667 299.802C214.433 296.413 216.367 292.632 218.262 288.859C219.028 287.332 219.786 285.813 220.52 284.327C221.906 281.51 223.212 278.79 224.333 276.373C225.365 274.144 226.244 272.168 226.897 270.583C227.098 271.621 227.268 272.674 227.397 273.736C227.542 274.813 227.647 275.908 227.703 277.002C227.719 277.165 227.727 277.337 227.735 277.5L227.768 278.17L227.776 278.366L228.63 278.48C233.559 279.015 238.528 279.053 243.465 278.594H243.473C250.013 278.096 256.428 276.521 262.468 273.932C265.898 272.424 269.101 270.434 271.981 268.019C273.327 266.891 274.583 265.657 275.738 264.328C276.028 263.993 276.311 263.659 276.585 263.316C278.18 261.329 279.546 259.165 280.656 256.864C281.399 255.346 282.03 253.774 282.543 252.161C285.639 242.664 285.461 230.815 282.011 216.736C282.943 216.554 283.835 216.206 284.647 215.707C287.179 214.164 288.936 211.102 289.484 207.362L290.355 207.598C293.442 206.142 296.191 204.044 298.425 201.441C298.868 200.911 299.282 200.358 299.667 199.783C303.609 193.904 303.642 186.848 301.086 180.895Z" fill="#2F2E41"/>
<path opacity="0.2" d="M166.341 388.131L173.192 361.353L179.241 384.46L166.341 388.131Z" fill="black"/>
<path d="M348.637 370.683C346.186 404.883 348.726 419.941 335.198 448.139C322.888 454.241 310.067 459.22 296.886 463.017C295.515 463.409 294.142 463.79 292.766 464.161C275.426 468.808 257.613 471.408 239.684 471.91C238.748 471.935 237.829 471.951 236.942 471.967C236.628 471.976 236.322 471.984 236.015 471.984C235.007 471.992 234.008 472 233 472C214.105 472.014 195.279 469.703 176.935 465.116C175.097 464.659 173.267 464.177 171.444 463.671C161.847 461.017 152.429 457.735 143.251 453.847C138.413 451.805 133.662 449.603 128.997 447.24C127.94 446.701 126.884 446.162 125.844 445.607C120.499 436.086 117.459 424.506 117.395 410.591C121.095 386.615 340.462 350.007 348.637 370.683Z" fill="#2F2E41"/>
<path opacity="0.2" d="M348.631 376.54C348.756 374.423 348.896 372.236 349.059 369.958C340.884 349.282 121.517 385.89 117.817 409.866C117.827 412.064 117.92 414.197 118.076 416.28C127.038 392.616 335.439 357.822 348.631 376.54Z" fill="black"/>
<path d="M131.492 279.404C131.546 278.664 131.442 277.92 131.188 277.224C130.934 276.528 130.536 275.895 130.02 275.367C129.504 274.84 128.883 274.431 128.197 274.167C127.512 273.903 126.779 273.791 126.048 273.838C125.775 273.849 125.504 273.883 125.238 273.941L93.1803 281.276C92.464 281.452 91.792 281.778 91.2076 282.233C90.6231 282.688 90.1393 283.262 89.7871 283.918C89.317 283.936 88.8501 284.005 88.3945 284.123C87.3969 284.352 86.4536 284.778 85.6185 285.376C84.7834 285.975 84.0727 286.734 83.5272 287.61C82.9817 288.486 82.612 289.463 82.4391 290.484C82.2663 291.505 82.2937 292.551 82.5198 293.562C82.7459 294.572 83.1663 295.527 83.757 296.373C84.3476 297.219 85.097 297.939 85.9623 298.491C87.7098 299.607 89.8235 299.974 91.8382 299.512C92.985 299.242 94.0578 298.717 94.9781 297.973L105.841 328.956C106.384 329.927 107.222 330.694 108.231 331.142C109.239 331.591 110.364 331.696 111.437 331.443L132.277 326.673C133.342 326.42 134.3 325.833 135.014 324.994C135.729 324.155 136.162 323.109 136.253 322.005L131.492 279.404ZM91.3571 297.306C89.9182 297.635 88.4093 297.372 87.1613 296.576C85.9132 295.78 85.0279 294.515 84.6994 293.058C84.371 291.602 84.6261 290.073 85.409 288.806C86.1918 287.54 87.4385 286.64 88.8756 286.303C88.9768 286.278 89.0782 286.303 89.1794 286.278C89.1718 287.212 89.4076 288.132 89.8632 288.945L93.8386 295.972C93.1465 296.637 92.2886 297.098 91.3571 297.306Z" fill="#2F2E41"/>
<path d="M126.048 273.838C126.352 277.942 119.414 282.661 110.121 284.534C101.587 286.303 93.94 285.072 91.7875 281.841C92.2201 281.581 92.69 281.39 93.1803 281.276L125.238 273.941C125.504 273.883 125.775 273.849 126.048 273.838V273.838Z" fill="#3F3D56"/>
<path d="M103.877 378.013L121.883 368.894L106.878 327.858L102.924 307.164C102.41 304.475 101.208 301.97 99.4395 299.899C97.6705 297.828 95.3958 296.264 92.8429 295.362C90.2899 294.461 87.5481 294.254 84.8913 294.761C82.2345 295.269 79.7559 296.475 77.7031 298.257V298.257C74.6611 300.898 72.7511 304.633 72.3761 308.673C72.0012 312.713 73.1907 316.743 75.6935 319.912L90.3727 338.497L103.877 378.013Z" fill="#A0616A"/>
<path d="M121.883 361.295L97.8752 373.453L116.095 431.276C117.403 435.429 119.748 439.168 122.903 442.132C126.059 445.096 129.916 447.184 134.102 448.194V448.194C139.264 449.438 144.683 448.986 149.574 446.901C154.464 444.817 158.573 441.209 161.302 436.6L209.616 352.723C213.039 346.943 214.096 340.037 212.56 333.478C211.024 326.92 207.018 321.23 201.396 317.624V317.624C198.372 315.684 194.979 314.411 191.437 313.887C187.896 313.364 184.285 313.601 180.84 314.585C177.395 315.568 174.194 317.275 171.443 319.595C168.693 321.914 166.455 324.794 164.877 328.048L135.388 391.691L121.883 361.295Z" fill="#3F3D56"/>
<path d="M114.458 309.039C114.413 309.039 114.369 309.031 114.327 309.016L109.085 307.189C109.022 307.167 108.965 307.129 108.919 307.079C108.874 307.029 108.842 306.969 108.825 306.903C108.809 306.837 108.809 306.769 108.825 306.703C108.841 306.637 108.874 306.577 108.919 306.527L112.818 302.227C112.853 302.188 112.896 302.156 112.944 302.133C112.993 302.11 113.045 302.097 113.098 302.094C113.151 302.092 113.204 302.1 113.253 302.119C113.303 302.137 113.349 302.165 113.388 302.201C113.427 302.238 113.459 302.282 113.481 302.33C113.503 302.379 113.516 302.432 113.518 302.486C113.52 302.539 113.512 302.593 113.494 302.643C113.475 302.694 113.447 302.74 113.411 302.779L109.929 306.619L114.589 308.244C114.679 308.276 114.755 308.339 114.804 308.422C114.853 308.505 114.871 308.602 114.855 308.698C114.84 308.793 114.791 308.88 114.718 308.942C114.645 309.004 114.553 309.039 114.458 309.039V309.039Z" fill="#24A640"/>
<path d="M121.642 307.549C121.562 307.549 121.484 307.525 121.417 307.479C121.351 307.434 121.299 307.369 121.269 307.294C121.239 307.218 121.231 307.136 121.248 307.056C121.265 306.976 121.304 306.904 121.362 306.847L124.905 303.377L120.146 301.391C120.097 301.371 120.052 301.341 120.015 301.303C119.977 301.265 119.947 301.22 119.927 301.171C119.906 301.121 119.896 301.068 119.896 301.014C119.896 300.961 119.906 300.907 119.926 300.858C119.946 300.808 119.976 300.763 120.013 300.725C120.051 300.687 120.095 300.657 120.144 300.637C120.193 300.616 120.245 300.605 120.298 300.605C120.351 300.605 120.404 300.616 120.453 300.636L125.781 302.861C125.843 302.886 125.898 302.927 125.94 302.98C125.983 303.032 126.011 303.095 126.024 303.161C126.037 303.228 126.033 303.297 126.012 303.361C125.992 303.426 125.956 303.484 125.908 303.531L121.923 307.434C121.848 307.508 121.747 307.549 121.642 307.549V307.549Z" fill="#24A640"/>
<path d="M115.558 311.536C115.518 311.536 115.478 311.53 115.439 311.518C115.389 311.502 115.342 311.477 115.301 311.442C115.26 311.408 115.226 311.366 115.202 311.319C115.177 311.271 115.161 311.22 115.156 311.166C115.151 311.113 115.157 311.059 115.173 311.008L118.893 298.758C118.925 298.655 118.996 298.569 119.09 298.519C119.185 298.468 119.295 298.458 119.397 298.49C119.499 298.522 119.584 298.593 119.634 298.689C119.684 298.784 119.695 298.896 119.664 298.999L115.943 311.248C115.918 311.332 115.867 311.405 115.797 311.457C115.728 311.508 115.644 311.536 115.558 311.536V311.536Z" fill="#24A640"/>
</g>
<defs>
<clipPath id="clip0_30_167">
<rect width="466" height="472" fill="white"/>
</clipPath>
</defs>
</svg>
