<svg width="94" height="94" viewBox="0 0 94 94" fill="none" xmlns="http://www.w3.org/2000/svg">
<g clip-path="url(#clip0_84_41)">
<path d="M47 0C21.0431 0 0 21.0431 0 47C0 72.9569 21.0431 94 47 94C72.9569 94 94 72.9569 94 47C94 21.0431 72.9569 0 47 0ZM20.6556 20.6556H73.3446V29.9821H67.6091V35.1129H73.3446V44.4346H67.6091V49.5654H73.3446V58.8871H67.6091V64.0179H73.3446V73.3469H20.6556V20.6556ZM44.131 29.8572C39.9252 29.8572 36.518 33.2693 36.518 37.4751C36.518 40.4558 38.2289 43.0345 40.7235 44.2853L30.9759 50.1211H30.856V58.3535H57.4061V50.1211H57.2862L47.5385 44.2853C50.0331 43.0345 51.7441 40.4558 51.7441 37.4751C51.744 33.2693 48.3369 29.8572 44.131 29.8572V29.8572Z" fill="#140A82"/>
</g>
<defs>
<clipPath id="clip0_84_41">
<rect width="94" height="94" fill="white"/>
</clipPath>
</defs>
</svg>
