<svg width="402" height="319" viewBox="0 0 402 319" fill="none" xmlns="http://www.w3.org/2000/svg">
<g clip-path="url(#clip0_8_303)">
<path d="M325.333 202.978C325.693 203.015 326.053 202.929 326.367 202.731C326.681 202.533 326.932 202.233 327.086 201.872C327.241 201.511 327.291 201.106 327.231 200.712C327.171 200.318 327.003 199.954 326.749 199.67C326.713 199.472 326.687 199.33 326.651 199.133C326.669 199.091 326.687 199.05 326.704 199.008C327.107 198.078 327.749 197.3 328.55 196.773C329.35 196.246 330.274 195.992 331.204 196.044C332.135 196.095 333.031 196.45 333.779 197.064C334.528 197.678 335.096 198.523 335.413 199.493C336.678 203.365 338.331 207.264 338.609 211.304C338.731 213.089 338.572 214.885 338.14 216.61C341.826 208.702 343.932 200.008 344.317 191.119C344.412 188.888 344.394 186.653 344.263 184.425C344.154 182.598 343.973 180.78 343.72 178.972C342.335 169.158 338.868 159.849 333.603 151.807C330.965 150.033 328.883 147.406 327.635 144.281C327.183 143.157 326.88 141.967 326.736 140.748C327.039 140.808 327.348 140.851 327.652 140.889C327.747 140.9 327.847 140.91 327.942 140.921L327.978 140.924C328.313 140.958 328.649 140.884 328.947 140.712C329.245 140.539 329.491 140.274 329.656 139.95C329.821 139.626 329.898 139.256 329.878 138.884C329.857 138.512 329.74 138.155 329.541 137.856C329.416 137.669 329.292 137.483 329.168 137.297C328.979 137.009 328.785 136.727 328.597 136.44C328.575 136.413 328.554 136.384 328.535 136.354C328.318 136.026 328.101 135.704 327.884 135.376C328.335 134.675 328.925 134.1 329.61 133.694C331.98 132.316 335.119 133.517 336.688 135.913C338.263 138.31 338.442 141.567 337.74 144.424C337.066 146.851 336.023 149.133 334.658 151.173C334.775 151.357 334.898 151.535 335.016 151.719C337.166 155.093 339.012 158.692 340.528 162.465C340.295 158.314 340.956 154.161 342.456 150.348C343.962 146.8 346.629 143.884 348.997 140.871C351.84 137.253 357.278 139.176 357.551 143.963C357.553 144.009 357.556 144.056 357.558 144.102C357.218 144.292 356.883 144.496 356.555 144.712C356.143 144.987 355.816 145.394 355.616 145.878C355.416 146.363 355.353 146.903 355.436 147.427C355.518 147.952 355.741 148.437 356.076 148.819C356.412 149.201 356.843 149.462 357.315 149.567L357.363 149.578C357.189 150.897 356.925 152.2 356.573 153.475C355.557 157.031 353.889 160.318 351.673 163.127C349.457 165.937 346.741 168.21 343.694 169.802C343.494 169.903 343.299 170.004 343.1 170.099C344.557 175.454 345.38 180.995 345.546 186.584C345.635 189.881 345.483 193.181 345.091 196.451L345.111 196.335C345.905 192.718 347.803 189.514 350.483 187.266C354.461 183.979 359.929 182.974 364.18 180.386C364.633 180.096 365.151 179.956 365.673 179.981C366.195 180.007 366.7 180.197 367.127 180.53C367.555 180.863 367.888 181.324 368.087 181.859C368.285 182.394 368.342 182.981 368.249 183.551C368.242 183.591 368.234 183.632 368.227 183.672C367.599 183.918 366.986 184.207 366.39 184.538C366.049 184.728 365.715 184.932 365.387 185.148C364.975 185.423 364.648 185.83 364.448 186.314C364.248 186.799 364.185 187.339 364.267 187.863C364.349 188.388 364.573 188.873 364.908 189.255C365.243 189.637 365.675 189.898 366.147 190.003L366.195 190.014C366.23 190.022 366.26 190.029 366.294 190.036C365.124 192.765 363.539 195.251 361.607 197.385C359.223 199.966 356.388 201.98 353.276 203.304C350.164 204.629 346.841 205.235 343.509 205.087L343.504 205.087C342.418 209.39 340.93 213.556 339.065 217.519L325.103 216.799C325.06 216.625 325.022 216.445 324.984 216.271C326.273 216.427 327.574 216.409 328.859 216.215C327.882 214.754 326.906 213.282 325.929 211.822C325.907 211.794 325.886 211.765 325.867 211.735C325.372 210.988 324.872 210.246 324.377 209.498L324.376 209.497C324.441 207.288 324.763 205.097 325.333 202.979L325.333 202.978Z" fill="#F2F2F2"/>
<path d="M44.0113 69.3008C43.6547 69.3622 43.2896 69.3008 42.9656 69.1248C42.6416 68.9488 42.3742 68.6667 42.1998 68.3169C42.0254 67.9671 41.9523 67.5663 41.9905 67.1689C42.0287 66.7716 42.1762 66.3968 42.4132 66.0954C42.4382 65.8959 42.4562 65.7527 42.4813 65.5532C42.4613 65.5128 42.4413 65.4725 42.4212 65.4322C41.9673 64.5314 41.2832 63.7992 40.4547 63.3275C39.6262 62.8558 38.6903 62.6656 37.7645 62.781C36.8387 62.8963 35.9644 63.312 35.2513 63.9758C34.5382 64.6396 34.0182 65.5218 33.7565 66.5118C32.7102 70.4632 31.2772 74.4676 31.2254 78.5185C31.2033 80.309 31.4618 82.0902 31.9895 83.7829C27.8696 76.1415 25.2818 67.6086 24.4015 58.7628C24.1827 56.5428 24.0762 54.311 24.0825 52.0778C24.0891 50.2469 24.1683 48.4202 24.3202 46.5979C25.1545 36.7087 28.0957 27.1798 32.902 18.7935C35.4353 16.8422 37.3675 14.078 38.4382 10.8733C38.8269 9.72089 39.0629 8.51224 39.1389 7.28495C38.8395 7.36565 38.5334 7.4304 38.2317 7.48903C38.1376 7.50591 38.0386 7.52344 37.9445 7.54037L37.909 7.54644C37.5767 7.60324 37.2367 7.55249 36.9299 7.40031C36.6231 7.24813 36.3625 7.001 36.1796 6.68868C35.9967 6.37635 35.8992 6.01214 35.8989 5.6399C35.8986 5.26766 35.9955 4.90326 36.1779 4.59056C36.2915 4.39603 36.4052 4.20157 36.519 4.0072C36.6911 3.70747 36.8688 3.41267 37.0409 3.11299C37.0613 3.08403 37.0802 3.05379 37.0975 3.02244C37.2958 2.68052 37.4945 2.34414 37.6927 2.00223C37.2039 1.33393 36.5823 0.799685 35.8764 0.441127C33.4342 -0.771233 30.3679 0.6414 28.9353 3.14062C27.4978 5.64039 27.5009 8.90413 28.3609 11.7075C29.1691 14.0837 30.3368 16.2903 31.8139 18.2326C31.7067 18.4241 31.594 18.6107 31.4868 18.8021C29.5291 22.3167 27.8871 26.0353 26.5846 29.9045C26.5852 25.7455 25.6941 21.6458 23.9844 17.9425C22.2827 14.5043 19.4581 11.7761 16.9273 8.93136C13.8874 5.51438 8.56725 7.80612 8.56199 12.6024C8.56194 12.6488 8.562 12.6952 8.56216 12.7416C8.91294 12.9083 9.25798 13.0884 9.59727 13.2821C10.0238 13.5284 10.3732 13.9115 10.5997 14.3814C10.8262 14.8513 10.9192 15.386 10.8666 15.9155C10.8139 16.4449 10.618 16.9444 10.3046 17.3484C9.99119 17.7525 9.57485 18.0423 9.11012 18.1799L9.06253 18.194C9.30983 19.4986 9.64633 20.7806 10.0691 22.0287C11.281 25.5094 13.1291 28.6753 15.4978 31.3281C17.8665 33.9808 20.7046 36.0631 23.8341 37.4445C24.0392 37.5314 24.2393 37.6189 24.4439 37.7003C23.2881 43.1441 22.7765 48.7312 22.922 54.321C23.0174 57.6178 23.3534 60.9005 23.9267 64.1373L23.9004 64.0233C22.9059 60.4671 20.8335 57.3998 18.0331 55.3394C13.8788 52.3302 8.36556 51.7018 3.97753 49.4092C3.50977 49.151 2.98507 49.0464 2.46534 49.1075C1.94561 49.1687 1.45252 49.3932 1.04422 49.7545C0.635927 50.1157 0.329457 50.5988 0.16096 51.1466C-0.00753649 51.6944 -0.0310339 52.2841 0.0932421 52.8462C0.102742 52.8861 0.11234 52.926 0.122032 52.9659C0.762496 53.1686 1.39093 53.4153 2.00369 53.7045C2.35446 53.8712 2.69949 54.0513 3.03879 54.245C3.46533 54.4912 3.81474 54.8744 4.04123 55.3443C4.26772 55.8142 4.36072 56.3489 4.30807 56.8784C4.25541 57.4078 4.05954 57.9073 3.74613 58.3113C3.43271 58.7154 3.01636 59.0052 2.55164 59.1428L2.50401 59.1569C2.4697 59.1666 2.44035 59.1758 2.40609 59.1855C3.72614 61.8296 5.4474 64.2024 7.49448 66.2C10.0179 68.6125 12.9598 70.4289 16.1398 71.5379C19.3197 72.6469 22.6708 73.025 25.9874 72.6491L25.9924 72.6485C27.3173 76.8689 29.0348 80.9255 31.1172 84.7528L45.0125 83.0793C45.0456 82.9024 45.073 82.7205 45.1011 82.5442C43.8237 82.7886 42.5241 82.8589 41.2313 82.7536C42.1246 81.2288 43.0168 79.6929 43.9102 78.1681C43.9306 78.1392 43.9496 78.109 43.9668 78.0776C44.4194 77.2978 44.8774 76.5229 45.3299 75.743L45.3301 75.7421C45.1421 73.5414 44.699 71.3766 44.0117 69.3011L44.0113 69.3008Z" fill="#F2F2F2"/>
<path d="M235.986 63.5994C236.674 63.8089 237.312 64.1829 237.855 64.6949C238.398 65.2069 238.833 65.8446 239.13 66.5629C239.426 67.2813 239.577 68.0628 239.571 68.8526C239.565 69.6424 239.403 70.4212 239.096 71.134L246.553 80.3129L242.62 86.6905L232.254 73.5644C231.207 72.9139 230.411 71.8605 230.018 70.6039C229.626 69.3473 229.663 67.9749 230.123 66.7465C230.583 65.5182 231.434 64.5194 232.514 63.9394C233.595 63.3594 234.83 63.2384 235.986 63.5994Z" fill="#A0616A"/>
<path d="M305.794 86.1382C305.121 84.9268 304.24 83.8742 303.199 83.0409C302.159 82.2075 300.98 81.6098 299.731 81.2819C298.481 80.9541 297.186 80.9026 295.918 81.1304C294.65 81.3582 293.436 81.8608 292.344 82.6094L267.821 99.4259L241.369 74.5293L234.787 81.314L264.01 123.294L301.991 101.371C301.105 101.883 306.865 88.0684 305.794 86.1382Z" fill="#00B0CC"/>
<path d="M257.213 142.054C257.215 155.464 254.832 168.743 250.198 181.132C245.564 193.522 238.771 204.779 230.207 214.262C221.643 223.744 211.476 231.265 200.286 236.396C189.096 241.526 177.103 244.165 164.991 244.163C114.059 244.163 72.769 198.446 72.769 142.054C72.7602 131.084 74.3484 120.185 77.4724 109.776C83.6057 89.446 95.3558 71.7653 111.061 59.234C126.767 46.7027 145.632 39.9548 164.991 39.9446C181.687 39.9382 198.07 44.9517 212.393 54.4501C226.716 63.9484 238.441 77.575 246.316 93.8751C248.268 97.8968 249.971 102.061 251.413 106.338C251.613 106.934 251.808 107.529 251.997 108.131V108.136C252.843 110.78 253.587 113.472 254.231 116.214C256.217 124.651 257.219 133.335 257.213 142.054Z" fill="#3F3D56"/>
<path d="M154.901 73.162C150.757 70.6805 146.155 69.2797 141.448 69.0665C136.74 68.8532 132.05 69.8331 127.737 71.9314C123.939 73.7616 119.939 77.0446 118.672 82.9732C123.797 79.6247 130.43 84.9153 131.749 93.4024L131.441 93.4964C130.745 99.3749 132.299 105.775 135.309 109.42C135.705 105.634 137.953 103.057 140.165 101.447C142.376 99.8377 144.823 98.6684 146.511 95.9015C148.512 92.6213 149.02 87.8274 149.815 83.4542C150.61 79.081 152.118 74.3806 154.901 73.162Z" fill="white"/>
<path d="M126.217 123.186C124.798 125.546 122.902 127.027 121.201 128.87C119.505 130.72 117.891 133.215 117.553 136.421C117.338 138.474 117.671 140.562 117.625 142.638C117.579 144.714 116.954 147.051 115.678 147.568C113.664 148.373 112.127 144.232 110.057 143.943C108.413 143.716 106.932 146.58 107.409 149.065C107.885 151.55 110.124 152.65 111.41 151.028C112.573 153.189 111.753 157.109 110.006 157.773C109.822 159.134 109.637 160.49 109.458 161.851C105.042 158.431 100.579 154.953 96.8236 149.944C92.6469 144.421 90.0563 137.641 89.3844 130.476C88.8977 124.718 89.62 118.132 87.2325 113.701C85.3214 110.156 82.0424 109.373 79.0913 109.594C78.5534 109.634 78.0103 109.702 77.4724 109.776C79.2127 103.988 81.4231 98.3872 84.0764 93.0413C84.6769 92.7559 85.2348 92.3715 85.7313 91.9011C88.4775 89.32 89.6969 84.0954 91.9256 80.4819C92.069 80.2493 92.2176 80.0224 92.3713 79.8012C94.6513 76.5053 97.7048 74.8091 100.656 73.2321C107.188 69.7207 113.91 66.1639 120.806 66.6518L118.844 66.8616C116.554 73.9639 114.262 81.0662 111.969 88.1684C111.62 89.2576 111.268 90.3486 110.913 91.4416C109.612 95.4805 108.269 99.7805 108.469 104.302C108.587 106.979 109.427 109.838 111.026 110.757C112.517 111.608 114.146 110.564 115.586 109.532C116.195 109.101 116.8 108.67 117.41 108.233C119.597 106.673 122.021 105.073 124.331 106.117C126.447 107.07 128.01 110.252 128.307 113.684C128.58 117.021 127.844 120.362 126.217 123.186Z" fill="white"/>
<path d="M139.228 171.675C132.839 167.319 126.449 162.963 120.06 158.608L120.168 158.298C116.196 159.974 114.546 167.792 115.203 174.186C115.859 180.58 118.086 186.296 119.21 192.526C120.727 201.052 120.154 209.872 117.553 218.07C125.954 207.632 133.39 196.288 139.747 184.208C140.636 182.685 141.312 181.024 141.755 179.279C142.161 177.422 142.099 175.19 141.286 173.702C140.763 172.847 140.056 172.151 139.228 171.675Z" fill="white"/>
<path d="M114.011 92.4298C113.333 94.1188 113.072 96.3709 113.687 98.1186C114.316 99.9034 115.646 100.71 116.869 101.382L120.4 103.319C121.574 103.964 122.84 104.615 124.038 104.084C125.482 103.445 126.483 100.938 126.224 98.6109C125.948 96.1345 124.539 94.431 123.235 92.9804C121.41 90.9505 119.585 88.9205 117.761 86.8905L116.732 88.285C115.62 89.4862 114.7 90.8877 114.011 92.4298Z" fill="white"/>
<path d="M238.287 118.903C239.875 119.317 241.464 119.731 243.052 120.146C242.775 126.085 240.116 131.582 236.55 133.573C235.064 134.401 233.41 134.707 232.18 136.256C231.068 137.663 230.505 139.853 229.987 141.946C229.08 145.599 228.173 149.252 227.267 152.906C226.293 156.842 225.043 161.216 222.512 162.634C220.34 163.854 217.855 162.362 216.185 159.86C214.514 157.359 213.495 153.995 212.506 150.716C212.567 154.29 211.066 157.796 208.94 159.038C206.809 160.28 204.216 159.157 202.792 156.383C201.767 154.392 201.342 151.765 200.338 149.746C199.334 147.726 197.228 146.569 196.131 148.464C195.409 149.723 195.501 151.652 195.143 153.252C194.584 155.736 192.893 157.296 191.218 157.432C189.548 157.569 187.918 156.502 186.52 155.056C183.635 152.06 181.509 147.307 180.684 142.025C180.32 139.671 180.218 137.107 180.848 134.9C181.478 132.694 183 130.992 184.511 131.412C185.505 129.086 183.543 126 181.775 126.272C180.003 126.544 178.614 128.649 177.159 130.266C175.709 131.882 173.681 133.057 172.22 131.451C172.231 132.943 171.134 133.93 170.186 133.806C169.243 133.686 168.403 132.847 167.537 132.251C164.192 129.942 159.944 131.474 157.567 135.842C159.053 128.842 161.23 120.809 165.795 119.164C167.66 118.489 169.694 119.045 171.457 117.876C174.577 115.806 175.207 107.983 172.512 104.755C172.856 107.807 172.789 111.37 171.334 113.457C169.879 115.545 166.825 114.183 167.01 111.098C166.59 113.225 164.499 113.548 163.536 111.914C162.568 110.281 162.65 107.609 163.336 105.657C164.023 103.706 165.191 102.305 166.323 100.96C168.757 98.073 171.226 95.1515 174.044 93.3362C176.867 91.521 180.126 90.9083 182.954 92.7123C184.445 93.6653 185.756 95.2536 187.278 96.0932C188.8 96.9384 190.731 96.8307 191.741 94.8565C192.873 92.6555 192.34 89.388 192.76 86.6367C193.513 81.7752 197.904 79.5005 200.338 82.7112C198.519 82.195 196.639 84.5775 196.413 87.465C196.183 90.3524 197.499 93.2682 199.262 94.1418C202.223 95.594 205.123 91.9407 207.362 88.5598C209.698 85.02 212.038 81.4821 214.381 77.9462C214.755 77.3441 215.175 76.7786 215.636 76.2557C216.37 75.4637 217.348 75.0102 218.373 74.987C219.398 74.9638 220.392 75.3728 221.154 76.1309C223.521 78.2695 224.633 82.6546 226.575 85.6724C229.393 90.0574 233.609 91.1239 237.534 91.9748C240.459 92.6045 243.387 93.2379 246.316 93.8752C248.268 97.8968 249.971 102.061 251.413 106.338C246.454 108.67 241.879 113.032 238.287 118.903Z" fill="white"/>
<path d="M247.745 187.157C245.55 192.092 242.997 196.822 240.111 201.3C238.267 200.426 236.284 201.986 234.557 203.45C232.754 204.981 230.587 206.473 228.737 205.078C226.846 203.648 226.237 199.649 226.836 196.478C227.436 193.312 228.932 190.794 230.382 188.4C231.919 185.858 233.563 183.221 235.7 182.234C237.841 181.246 240.593 182.642 241.218 186.012L242.734 185.955C241.884 184.661 242.329 181.984 243.472 181.513C244.789 180.963 245.931 182.965 246.71 184.735C247.058 185.535 247.412 186.341 247.745 187.157Z" fill="white"/>
<path d="M189.663 163.196C186.403 163.423 183.821 158.98 182.105 154.609C180.389 150.238 178.824 145.24 175.883 143.015C174.202 141.744 172.286 141.569 170.463 140.953C168.64 140.337 166.732 139.063 165.861 136.467L163.793 135.542C161.062 137.242 158.295 138.973 155.942 141.74C153.303 144.844 151.659 148.823 151.264 153.063C150.869 157.646 152.328 162.756 155.053 164.477C157.207 165.837 159.714 164.98 161.895 166.225C164.621 167.781 166.239 172.301 166.851 176.763C167.464 181.226 167.309 185.863 167.747 190.376C168.185 194.889 169.393 199.585 171.892 201.898C175.02 204.792 179.609 202.387 181.013 197.119C181.701 194.535 181.677 191.619 182.192 188.936C183.099 184.212 185.545 180.707 187.485 176.832C189.426 172.957 190.953 167.694 189.663 163.196Z" fill="white"/>
<path d="M157.452 116.776C157.756 117.085 158.04 117.419 158.301 117.773C158.571 118.289 158.709 118.877 158.7 119.474C158.691 120.07 158.535 120.653 158.249 121.158C158.641 121.134 159.025 121.019 159.376 120.822C159.726 120.624 160.036 120.349 160.286 120.012C160.88 119.262 161.404 118.446 161.847 117.576C162.18 116.976 162.533 116.165 162.308 115.452C162.154 114.965 161.79 114.757 161.534 114.392C161.13 113.812 161.029 112.89 160.82 112.094C160.368 110.375 159.284 109.11 158.108 108.93L158.271 108.964C157.78 109.151 157.437 110.014 157.545 110.792C157.644 111.5 158.055 112.087 158.014 112.809C157.956 113.847 157.019 114.335 156.961 115.373C156.952 115.894 157.128 116.398 157.452 116.776Z" fill="white"/>
<path d="M151.867 99.1334C151.872 99.1319 151.877 99.1316 151.882 99.1303C151.982 99.0291 152.075 98.9194 152.16 98.8022L151.867 99.1334Z" fill="#E6E6E6"/>
<path d="M152.845 104.006C153.565 103.493 153.968 102.074 153.729 100.886C153.493 99.7058 152.655 98.9122 151.882 99.1302C151.657 99.3819 151.379 99.5664 151.072 99.6662C150.766 99.7661 150.442 99.7781 150.13 99.701C149.652 99.5648 149.128 99.214 148.713 99.6127C148.476 99.9104 148.31 100.269 148.23 100.656C148.077 101.178 147.923 101.699 147.77 102.221C147.697 102.407 147.678 102.614 147.716 102.813C147.745 102.893 147.792 102.963 147.853 103.017C147.914 103.071 147.987 103.106 148.063 103.12C148.984 103.42 149.905 103.721 150.825 104.021C151.496 104.24 152.22 104.451 152.845 104.006Z" fill="white"/>
<path d="M222.34 171.284C221.914 170.513 221.489 169.742 221.063 168.97C220.645 168.077 220.074 167.283 219.381 166.632C219.229 166.49 219.052 166.384 218.862 166.319C218.673 166.255 218.473 166.233 218.275 166.255C218.078 166.276 217.886 166.342 217.711 166.447C217.537 166.552 217.383 166.695 217.259 166.867L217.311 167.308C218.281 168.655 219.307 170.152 219.553 172.151C219.65 172.94 219.616 173.756 219.701 174.547C219.786 175.339 220.028 176.16 220.49 176.501C221.16 176.997 221.947 176.266 222.423 175.375C222.85 174.642 223.041 173.772 222.966 172.905C222.86 172.323 222.647 171.771 222.34 171.284Z" fill="white"/>
<path d="M241.278 141.825C241.401 140.931 241.524 140.038 241.647 139.144C241.847 138.163 241.872 137.147 241.721 136.155C241.686 135.939 241.613 135.732 241.505 135.547C241.398 135.362 241.258 135.203 241.094 135.079C240.93 134.954 240.745 134.868 240.55 134.824C240.356 134.78 240.155 134.779 239.96 134.823L239.744 135.197C239.702 136.919 239.617 138.796 238.642 140.501C238.257 141.173 237.757 141.773 237.362 142.44C236.966 143.106 236.674 143.907 236.828 144.497C237.053 145.354 238.08 145.356 238.963 145.014C239.715 144.757 240.367 144.228 240.815 143.511C241.072 142.99 241.23 142.416 241.278 141.825Z" fill="#E6E6E6"/>
<path d="M229.015 172.288C229.223 171.626 228.923 170.867 228.859 170.135C228.829 169.189 229.055 168.256 229.509 167.454C229.96 166.698 230.302 165.869 230.522 164.997C230.614 164.599 230.597 164.18 230.473 163.793C230.332 163.443 229.991 163.283 229.795 163.561L230.214 163.859C229.649 163.747 229.068 163.779 228.515 163.95C228.199 164.084 227.917 164.3 227.693 164.58C227.469 164.86 227.309 165.195 227.227 165.558C227.157 166.124 227.044 166.682 226.889 167.226C226.639 167.794 226.155 167.984 225.852 168.483C225.644 168.925 225.54 169.417 225.547 169.916C225.555 170.414 225.674 170.902 225.894 171.337C226.276 172.048 226.883 172.576 227.596 172.819C228.108 173.022 228.781 173.033 229.015 172.288Z" fill="white"/>
<path d="M240.903 176.259C241.088 176.792 241.335 177.295 241.639 177.756C242.208 178.391 242.982 178.001 243.672 177.847C244.299 177.737 244.94 177.817 245.529 178.079C246.118 178.34 246.632 178.773 247.016 179.332C246.748 177.853 246.164 176.467 245.312 175.291C244.46 174.114 243.366 173.181 242.121 172.57C240.493 171.835 238.779 171.764 237.087 171.698L236.794 171.781C237.539 174.182 239.879 174.128 240.903 176.259Z" fill="white"/>
<path d="M190.554 181.171L190.559 181.181C190.587 181.121 190.615 181.06 190.644 181L190.554 181.171Z" fill="#E6E6E6"/>
<path d="M188.751 185.035C188.358 185.826 188.019 186.649 187.739 187.496C187.368 188.869 187.122 190.28 187.006 191.707C186.914 192.518 186.886 193.555 187.345 193.95C187.477 194.047 187.636 194.087 187.793 194.064C187.95 194.04 188.094 193.954 188.197 193.822C188.452 193.523 188.661 193.18 188.815 192.805C189.717 191.084 190.418 189.243 190.9 187.326C191.34 185.307 191.335 182.929 190.559 181.181C189.956 182.466 189.354 183.751 188.751 185.035Z" fill="white"/>
<path d="M171.353 82.0664C171.64 82.3764 172.002 82.5868 172.395 82.6718C172.788 82.7568 173.195 82.7125 173.566 82.5445C174.334 82.1729 175.038 81.6578 175.648 81.0218C176.153 80.608 176.582 80.0905 176.91 79.4974C177.091 79.143 177.207 78.7525 177.251 78.3484C177.296 77.9442 177.268 77.5343 177.168 77.1423C176.883 76.219 176.16 75.9095 175.522 75.6999C174.5 75.3644 173.478 75.029 172.456 74.6935L173.195 73.9559C172.435 73.504 171.594 74.3426 171.118 75.381C170.813 76.0589 170.601 76.7831 170.488 77.53C170.233 79.1597 170.482 81.1004 171.353 82.0664Z" fill="#E6E6E6"/>
<path d="M189.393 75.3611C189.681 75.7127 190.079 75.9297 190.506 75.9682C190.933 76.0067 191.358 75.8637 191.693 75.5684C191.982 75.3282 192.222 75.0234 192.397 74.6738C192.573 74.3241 192.68 73.9375 192.711 73.5392C192.783 72.6493 192.386 71.6602 191.818 71.5834L191.948 70.7502C190.855 70.5316 189.509 70.4878 188.924 71.9579C188.726 72.521 188.665 73.1317 188.748 73.7289C188.83 74.3261 189.053 74.889 189.393 75.3611Z" fill="#E6E6E6"/>
<path d="M186.983 31.0543C180.573 30.2538 174.139 32.3053 169.095 36.7576C164.052 41.2098 160.812 47.6981 160.089 54.7951C158.583 69.5738 165.615 101.666 178.436 114.951C184.473 89.4984 205.626 74.4012 208.425 60.832C211.416 46.3329 200.331 32.7214 186.983 31.0543Z" fill="#F6CB40"/>
<path d="M182.55 63.909C186.931 63.909 190.482 59.9769 190.482 55.1265C190.482 50.2761 186.931 46.3441 182.55 46.3441C178.169 46.3441 174.618 50.2761 174.618 55.1265C174.618 59.9769 178.169 63.909 182.55 63.909Z" fill="white"/>
<path d="M174.21 127.614C177.079 127.614 179.405 125.039 179.405 121.862C179.405 118.685 177.079 116.11 174.21 116.11C171.341 116.11 169.015 118.685 169.015 121.862C169.015 125.039 171.341 127.614 174.21 127.614Z" fill="#F6CB40"/>
<path opacity="0.2" d="M189.113 48.8344C190.006 49.4284 190.784 50.2114 191.404 51.1385C192.023 52.0656 192.472 53.1187 192.724 54.2378C192.976 55.3568 193.026 56.5199 192.872 57.6605C192.718 58.8011 192.363 59.897 191.826 60.8856C191.29 61.8741 190.583 62.736 189.746 63.422C188.908 64.108 187.957 64.6046 186.946 64.8836C184.905 65.4471 182.745 65.0896 180.942 63.8899C182.781 64.3428 184.705 64.0564 186.37 63.082C188.035 62.1077 189.333 60.509 190.031 58.5721C190.729 56.6351 190.781 54.4865 190.179 52.5106C189.577 50.5347 188.359 48.8606 186.744 47.788C187.579 47.993 188.379 48.3464 189.113 48.8344Z" fill="#231F20"/>
<path opacity="0.2" d="M208.456 60.8604C205.657 74.4296 184.504 89.5268 178.467 114.98C177.261 113.718 176.141 112.36 175.117 110.915C181.9 86.9905 201.737 72.4529 204.441 59.3427C206.862 47.6088 200.063 36.4573 190.307 31.7466C202.116 35.0336 211.197 47.5734 208.456 60.8604Z" fill="#231F20"/>
<path d="M112.652 65.322C107.838 64.7208 103.006 66.2614 99.2187 69.6049C95.4311 72.9484 92.9982 77.8209 92.4552 83.1505C91.3245 94.2488 96.6053 118.349 106.233 128.326C110.767 109.211 126.652 97.874 128.754 87.684C131 76.7957 122.676 66.5739 112.652 65.322Z" fill="#F6CB40"/>
<path d="M109.323 89.9947C112.613 89.9947 115.28 87.0419 115.28 83.3994C115.28 79.7569 112.613 76.8041 109.323 76.8041C106.033 76.8041 103.366 79.7569 103.366 83.3994C103.366 87.0419 106.033 89.9947 109.323 89.9947Z" fill="white"/>
<path d="M103.06 137.835C105.214 137.835 106.961 135.901 106.961 133.515C106.961 131.13 105.214 129.196 103.06 129.196C100.905 129.196 99.1581 131.13 99.1581 133.515C99.1581 135.901 100.905 137.835 103.06 137.835Z" fill="#F6CB40"/>
<path opacity="0.2" d="M114.251 78.6743C114.922 79.1204 115.506 79.7083 115.972 80.4045C116.437 81.1008 116.774 81.8917 116.963 82.732C117.152 83.5724 117.19 84.4458 117.075 85.3024C116.959 86.1589 116.692 86.9819 116.289 87.7243C115.886 88.4666 115.355 89.1139 114.726 89.629C114.098 90.1442 113.383 90.5172 112.624 90.7267C111.865 90.9362 111.076 90.9781 110.303 90.8501C109.529 90.7221 108.786 90.4265 108.115 89.9805C109.496 90.3205 110.941 90.1054 112.191 89.3737C113.442 88.642 114.416 87.4414 114.941 85.9869C115.465 84.5323 115.504 82.9188 115.052 81.435C114.6 79.9512 113.685 78.694 112.472 77.8884C113.1 78.0424 113.701 78.3078 114.251 78.6743Z" fill="#231F20"/>
<path opacity="0.2" d="M128.778 87.7054C126.676 97.8954 110.79 109.233 106.257 128.347C105.351 127.4 104.51 126.38 103.741 125.295C108.835 107.328 123.732 96.411 125.763 86.5657C127.58 77.7539 122.474 69.3795 115.148 65.8419C124.017 68.3103 130.836 77.7273 128.778 87.7054Z" fill="#231F20"/>
<path d="M299.143 304.24H292.603L289.491 276.309L299.144 276.309L299.143 304.24Z" fill="#A0616A"/>
<path d="M302.661 317.989H298.02L297.192 313.138L295.071 317.989H282.762C282.172 317.99 281.597 317.781 281.122 317.394C280.647 317.007 280.296 316.461 280.12 315.838C279.945 315.214 279.954 314.545 280.146 313.927C280.339 313.309 280.704 312.776 281.19 312.405L291.019 304.889V299.984L301.358 300.668L302.661 317.989Z" fill="#2F2E41"/>
<path d="M273.811 304.24H267.271L264.159 276.309L273.812 276.309L273.811 304.24Z" fill="#A0616A"/>
<path d="M277.329 317.989H272.689L271.86 313.138L269.739 317.989H257.43C256.84 317.99 256.265 317.781 255.79 317.394C255.315 317.007 254.964 316.461 254.788 315.838C254.613 315.214 254.622 314.545 254.814 313.927C255.007 313.309 255.372 312.776 255.858 312.405L265.687 304.889V299.984L276.026 300.668L277.329 317.989Z" fill="#2F2E41"/>
<path d="M248.964 230.495C250.216 232.574 263.831 289.716 263.831 289.716L275.904 291.24L274.471 276.863L272.281 251.42L268.889 234.438C268.889 234.438 280.867 204.256 281.624 201.851L282.162 200.126L285.905 237.729C286.349 239.071 286.543 240.5 286.474 241.928C286.361 244.277 288.489 279.613 288.489 279.613L289.512 292.286L299.856 293.877L304.052 271.95C307.557 264.827 305.548 239.516 304.115 237.161C302.682 234.805 303.251 218.397 303.251 218.397C305.081 217.684 315.994 176.484 310.536 176.727C310.886 174.531 311.161 172.57 311.161 172.57L301.687 164.11L277.976 157.285L271.994 154.105C271.994 154.105 261.309 175.979 261.416 177.067C261.563 178.445 261.278 179.837 260.609 181.01L249.821 220.982C249.821 220.982 247.7 228.396 248.964 230.495Z" fill="#2F2E41"/>
<path d="M308.534 87.4592L304.762 78.5917L291.924 79.138L287.736 88.3632C287.736 88.3632 275.768 104.19 275.381 109.336C274.894 115.809 278.943 147.531 274.894 145.475C274.894 145.475 265.348 157.881 270.996 157.881C276.645 157.881 302.195 175.639 303.871 177.636C305.548 179.633 313.032 180.928 312.404 176.759C311.777 172.59 308.534 150.041 308.534 150.041L317.312 114.586C319.838 106.932 320.625 98.3452 314.914 93.2033L308.534 87.4592Z" fill="#00B0CC"/>
<path d="M260.979 61.3599C259.262 60.6051 257.427 60.2323 255.579 60.2626C253.732 60.2929 251.908 60.7258 250.212 61.5366C248.516 62.3474 246.98 63.5201 245.693 64.9879C244.406 66.4557 243.393 68.1898 242.711 70.0912C239.845 78.0875 239.37 97.1833 244.704 106.754C251.564 93.5609 265.442 88.6895 268.865 81.5857C272.522 73.9951 268.201 64.534 260.979 61.3599Z" fill="#F6CB40"/>
<path d="M255.204 79.132C257.738 79.132 259.792 76.8575 259.792 74.0517C259.792 71.2459 257.738 68.9713 255.204 68.9713C252.67 68.9713 250.615 71.2459 250.615 74.0517C250.615 76.8575 252.67 79.132 255.204 79.132Z" fill="white"/>
<path d="M241.398 113.229C243.058 113.229 244.403 111.739 244.403 109.901C244.403 108.063 243.058 106.573 241.398 106.573C239.738 106.573 238.393 108.063 238.393 109.901C238.393 111.739 239.738 113.229 241.398 113.229Z" fill="#F6CB40"/>
<path opacity="0.2" d="M259.73 71.6425C260.57 72.6155 261.028 73.9183 261.001 75.2644C260.975 76.6106 260.467 77.8901 259.589 78.8218C258.711 79.7535 257.535 80.2611 256.319 80.2332C255.103 80.2053 253.947 79.6441 253.105 78.673C254.069 79.2348 255.182 79.3983 256.245 79.1343C257.308 78.8703 258.252 78.1961 258.907 77.2322C259.562 76.2684 259.886 75.0778 259.821 73.8737C259.755 72.6695 259.305 71.5304 258.551 70.6602C258.989 70.915 259.387 71.2468 259.73 71.6425Z" fill="#231F20"/>
<path opacity="0.2" d="M268.878 81.6068C265.455 88.7105 251.577 93.582 244.718 106.775C244.218 105.868 243.779 104.922 243.405 103.943C250.472 91.7287 263.538 86.9482 266.845 80.0848C269.805 73.9418 267.539 66.5743 262.739 62.3049C268.881 66.1248 272.23 74.6508 268.878 81.6068Z" fill="#231F20"/>
<path d="M240.044 108.755C240.742 108.596 241.464 108.608 242.158 108.791C242.852 108.974 243.501 109.323 244.06 109.813C244.619 110.304 245.074 110.924 245.393 111.631C245.712 112.337 245.887 113.113 245.906 113.902L256.316 118.326L255.43 125.986L240.809 119.51C239.609 119.457 238.468 118.919 237.603 117.998C236.737 117.076 236.207 115.835 236.112 114.509C236.018 113.183 236.366 111.866 237.09 110.805C237.815 109.745 238.866 109.015 240.044 108.755L240.044 108.755Z" fill="#A0616A"/>
<path d="M312.778 92.9704C311.682 92.2295 310.465 91.7355 309.196 91.5167C307.927 91.2979 306.632 91.3586 305.385 91.6953C304.137 92.0321 302.962 92.6382 301.926 93.4789C300.891 94.3196 300.015 95.3784 299.35 96.5946L284.408 123.914L250.626 115.048L247.548 124.403L290.81 147.092L312.721 108.453C316.001 103.348 317.608 96.2347 312.778 92.9704Z" fill="#00B0CC"/>
<path d="M313.336 59.4898C313.337 62.1229 312.754 64.716 311.639 67.0414C310.523 69.3668 308.909 71.3534 306.938 72.827C304.967 74.3005 302.7 75.2158 300.335 75.4926C297.97 75.7693 295.58 75.3991 293.375 74.4144C291.169 73.4296 289.215 71.8605 287.686 69.8446C286.156 67.8288 285.096 65.428 284.6 62.8529C284.103 60.2778 284.185 57.6072 284.839 55.0755C285.492 52.5438 286.697 50.2284 288.348 48.3326L288.417 48.2555C288.534 48.1203 288.65 47.9852 288.772 47.8565C288.773 47.8565 288.773 47.8563 288.774 47.856C288.775 47.8557 288.775 47.8552 288.776 47.8546C288.777 47.854 288.777 47.8533 288.777 47.8525C288.778 47.8517 288.778 47.8509 288.778 47.85C288.929 47.6956 289.08 47.5412 289.237 47.3932C291.336 45.3554 293.921 44.0306 296.683 43.5776C299.445 43.1245 302.266 43.5624 304.809 44.8388C307.352 46.1151 309.508 48.1758 311.021 50.7742C312.533 53.3727 313.337 56.3986 313.336 59.4898V59.4898Z" fill="#2F2E41"/>
<path d="M295.229 76.7004C301.957 76.7004 307.411 70.6613 307.411 63.2117C307.411 55.7621 301.957 49.723 295.229 49.723C288.5 49.723 283.046 55.7621 283.046 63.2117C283.046 70.6613 288.5 76.7004 295.229 76.7004Z" fill="#9E616A"/>
<path d="M308.166 67.0584L306.147 66.6636C305.019 66.4366 303.981 65.8338 303.171 64.9357C302.361 64.0376 301.818 62.8871 301.614 61.638L299.645 65.2927L299.559 65.3244C294.866 67.0494 289.983 66.5335 284.635 63.7492C283.106 62.9461 281.623 62.0405 280.193 61.0375L280.088 60.9645L280.079 60.8273C279.806 56.4393 280.696 52.7735 282.584 50.5051C283.309 49.6516 284.188 48.9774 285.165 48.5266C286.142 48.0759 287.193 47.8587 288.251 47.8893C288.327 47.8675 288.396 47.8253 288.453 47.7663C288.48 47.7442 288.507 47.7223 288.534 47.7015V47.6789L288.674 47.6059C288.974 47.4495 289.281 47.2996 289.587 47.1627C291.998 46.1295 294.623 45.8703 297.16 46.4149C299.698 46.9595 302.046 48.2858 303.933 50.2415C307.686 54.2081 309.407 60.8647 308.216 66.8064L308.166 67.0584Z" fill="#2F2E41"/>
<path d="M333.861 78.5508C329.716 76.1816 335.047 67.5828 333.976 62.5554C332.905 57.5279 325.189 55.9109 324.698 50.7741C324.206 45.6373 323.05 40.3392 319.988 36.4414C318.032 33.9507 315.15 32.112 312.182 32.4239C311.178 32.5295 310.206 32.8734 309.333 33.4323C308.459 33.9912 307.705 34.7519 307.121 35.6626C306.537 36.5734 306.138 37.6127 305.949 38.7099C305.761 39.8071 305.789 40.9363 306.03 42.0206C305.185 40.695 302.998 40.9823 302.457 42.4902C301.976 43.8307 303.039 45.4544 304.29 45.573C305.927 47.8115 307.802 50.1871 310.366 50.6386C310.775 50.7425 311.199 50.7422 311.608 50.6378C312.017 50.5334 312.398 50.3276 312.724 50.0359C313.328 49.3944 313.375 48.1118 312.659 47.6323C315.882 49.0499 317.772 52.9083 318.25 56.7115C318.728 60.5147 318.067 64.3627 317.631 68.1721C317.195 71.9815 317.007 75.9888 318.356 79.5263C319.95 83.7059 323.619 86.7015 327.624 87.6622C331.629 88.6229 335.894 87.684 339.519 85.5686C343.143 83.4531 346.166 80.2237 348.636 76.6031C344.382 79.9473 338.497 81.2002 333.861 78.5508Z" fill="#2F2E41"/>
<path d="M307.647 66.6834C307.647 66.6834 304.038 51.7686 288.568 48.3262C288.551 48.3198 288.493 48.2941 288.417 48.2555C288.371 48.2233 288.313 48.1911 288.255 48.159C288.429 48.0496 288.598 47.9531 288.772 47.8565C288.773 47.8565 288.773 47.8564 288.774 47.856C288.775 47.8557 288.775 47.8552 288.776 47.8546C288.777 47.854 288.777 47.8533 288.777 47.8525C288.778 47.8517 288.778 47.8509 288.778 47.8501C288.929 47.6956 289.08 47.5412 289.237 47.3932L289.678 47.4126C289.678 47.4126 305.201 44.6908 307.647 66.6834Z" fill="#FD6584"/>
<path opacity="0.2" d="M299.567 114.541L290.83 125.749L276.393 121.029L292.132 129.059L299.567 114.541Z" fill="black"/>
<path d="M352.01 318.834L217.677 319C217.524 319 217.377 318.932 217.268 318.811C217.16 318.691 217.099 318.528 217.099 318.358C217.099 318.188 217.16 318.025 217.268 317.904C217.377 317.784 217.524 317.716 217.677 317.716L352.01 317.55C352.164 317.55 352.311 317.617 352.42 317.738C352.529 317.858 352.59 318.022 352.59 318.192C352.59 318.362 352.529 318.526 352.42 318.646C352.311 318.767 352.164 318.834 352.01 318.834Z" fill="#CACACA"/>
<path d="M357.906 219.027C351.616 219.027 344.722 218.764 337.224 218.238C298.439 215.511 248.202 206.03 195.766 191.543C143.33 177.055 94.9592 159.291 59.5649 141.524C42.3233 132.868 29.0905 124.675 20.2344 117.172C10.8582 109.228 6.75685 102.304 8.04395 96.593C10.5518 85.4661 32.7577 83.0318 50.9446 82.9491L50.9508 84.5672C25.9754 84.6808 11.2411 89.0909 9.46213 96.9849C7.19597 107.039 25.6778 122.735 60.1684 140.05C95.4849 157.778 143.767 175.508 196.12 189.973C248.473 204.437 298.618 213.902 337.316 216.623C375.109 219.281 398.085 215.038 400.351 204.984C402.233 196.636 389.83 184.339 365.428 170.357L366.099 168.92C383.83 179.079 404.412 193.651 401.769 205.376C400.482 211.087 393.924 215.066 382.276 217.201C375.636 218.417 367.481 219.027 357.906 219.027Z" fill="#F6CB40"/>
</g>
<defs>
<clipPath id="clip0_8_303">
<rect width="402" height="319" fill="white"/>
</clipPath>
</defs>
</svg>
